<svg xmlns="http://www.w3.org/2000/svg" viewBox="0 0 860.67 906.65"><defs><style>.cls-1{fill:#ededed;}</style></defs><title>Ativo 1</title><g id="Camada_2" data-name="Camada 2"><g id="Camada_1-2" data-name="Camada 1"><path class="cls-1" d="M347.7,149.58q-6.9-9.59-14-19a17.22,17.22,0,0,1,7.5,1.5,11.72,11.72,0,0,1,1.52.83h0a11.24,11.24,0,0,1,1.37,1,8.6,8.6,0,0,1,.84.77,13,13,0,0,1,3.41,6.26,14.41,14.41,0,0,0,4.13,7.08c27.8,28.08,46.92,61.28,58.15,99.09,1.29,4.31,1,8.66.07,13.24-12.26-31.31-28.54-60.08-46.85-87.54q-2.61-3.92-5.28-7.8l-2.68-3.89Q351.83,155.32,347.7,149.58Z"/><path class="cls-1" d="M431.23,221.86a9.41,9.41,0,0,1,2-7.2,5.44,5.44,0,0,1,.48-.48,7.63,7.63,0,0,1,4-1.83c8.53-1.4,14.27-6.71,20.07-12.3,1.33-1.28,2.71-4,5.19-1.82a2.24,2.24,0,0,1,.82,1.25.48.48,0,0,1,0,.2,1.78,1.78,0,0,1,0,.61c-.21,1-1.16,2-1.54,3-4.77,11.51-10.93,22.4-14.23,34.51,0,.1,0,.2-.07.3l0,.09c0,.14-.08.27-.13.41s-.11.26-.17.39a4.8,4.8,0,0,1-5.52,2.6c-3.82-.73-7.72-1.85-9.16-5.78l-.15-.46a7,7,0,0,1-.22-.85c-.1-.51-.19-1-.27-1.55C431.7,229.3,431.59,225.55,431.23,221.86Z"/><path class="cls-1" d="M463.39,219.92a249.17,249.17,0,0,1,25.72-44.28v0l0,0c-.9,2.24-1.8,4.49-2.69,6.73-3.6,9.05-7.15,18.11-10.74,27.16h0c-9.84,24.88-19.94,49.66-31.94,73.65v0c.23-1.22.47-2.43.72-3.64A288.78,288.78,0,0,1,453.93,244c.27-.8.55-1.6.83-2.4Q458.59,230.55,463.39,219.92Z"/><path class="cls-1" d="M622.33,567.4c-1.67,1.24-3.35,2.47-5,3.67q-5.73,4.13-11.56,8-1.95,1.3-3.91,2.58c-1.75,1.15-3.51,2.27-5.28,3.38s-3.5,2.18-5.27,3.25q-12,7.26-24.56,13.47-2.78,1.37-5.58,2.67c-.95.45-1.9.88-2.86,1.32q-4.24,1.9-8.56,3.7h0c-1.2.5-2.41,1-3.62,1.47q-5.45,2.14-11,4.07c-43.33,15-87.84,22.61-133,11.48-41.71-10.28-82.78-22.76-122.74-38.38q-4-1.56-8-3.17l-4.11-1.67h0q-4.68-1.9-9.34-3.89t-9.31-4l-2.83-1.27-3.17-1.45c-2.11-1-4.21-2-6.31-3l-3.15-1.53c-3.47-1.69-7-3.42-10.45-5.16l-5.21-2.6h0l-5.26-2.62-.06,0q-2.61-1.31-5.26-2.59l-.05,0h0c2.08,6.73,3.81,12.81,5.83,18.81,10.56,31.35,20.22,62.84,22.25,96.24a70.07,70.07,0,0,0,4.4,21c.16.42.33.84.5,1.26s.37.88.56,1.32l.63,1.39c.49,1.06,1,2.09,1.56,3.1.29.54.59,1.07.9,1.6.7,1.21,1.45,2.39,2.23,3.54h0c1,1.53,2.16,3,3.35,4.45.6.72,1.21,1.43,1.83,2.12s1.28,1.38,1.94,2a78.91,78.91,0,0,0,23.65,16,342.39,342.39,0,0,0,33.63,13A389.83,389.83,0,0,0,356.9,753.4q2.89.58,5.8,1.11,9.39,1.74,18.83,3a416.78,416.78,0,0,0,75.8,3.1h0c2.34-.11,4.69-.24,7-.4s4.74-.32,7.11-.51,4.71-.39,7.06-.62c1.19-.11,2.38-.22,3.57-.35,1.78-.18,3.55-.37,5.32-.58l3.36-.4,2-.23q2.37-.3,4.74-.63h0q6.9-.95,13.72-2.15c3-.53,6-1.1,9-1.71s6-1.25,9-1.94,5.92-1.4,8.86-2.17h0q7.94-2.05,15.74-4.5,3.12-1,6.21-2c2.07-.69,4.12-1.41,6.17-2.15q4.41-1.59,8.79-3.32,2.18-.85,4.35-1.76c1.18-.48,2.35-1,3.52-1.48,2.2-.94,4.38-1.9,6.56-2.9,1.9-.87,3.8-1.76,5.68-2.67,2.48-1.19,4.94-2.43,7.4-3.7a294.36,294.36,0,0,0,31.11-18.6,51.61,51.61,0,0,0,4.11-3.14c.43-.36.84-.73,1.25-1.1h0a37.77,37.77,0,0,0,8.55-11.19c.46-.92.87-1.86,1.25-2.82.19-.48.37-1,.54-1.46s.26-.76.37-1.14.29-1,.42-1.45c.26-1,.49-2,.68-3h0c.06-.32.12-.64.17-1,.1-.56.18-1.13.25-1.71a48.38,48.38,0,0,0,.4-5.35c.42-19.08-.71-38.19,3.72-57.13,2.84-12.09,4.79-24.34,6.47-36.82.34-2.49.66-5,1-7.52q.69-5.5,1.38-11.09t1.4-11.23c.39-3,.78-6.05,1.19-9.1.21-1.52.42-3,.64-4.59C651.45,546.49,636.74,556.72,622.33,567.4ZM598.44,718.56c-1.05.59-2.1,1.17-3.16,1.73-.4.23-.81.44-1.22.65-.68.37-1.36.73-2,1.08-.44.24-.89.47-1.34.69L588,724.05l-2.6,1.26-.26.12-2.58,1.2-2.92,1.31-2.75,1.19c-.86.37-1.72.73-2.59,1.08-2.43,1-4.89,1.95-7.36,2.86a220.79,220.79,0,0,1-33,9.28C454.4,758.1,375.57,757,298.72,727.73c-13.91-5.3-27.42-11.56-38.73-21.7a46.42,46.42,0,0,1-9-10.83c-.18-.29-.34-.57-.5-.86-.33-.59-.65-1.19-1-1.8-.56-1.12-1.07-2.25-1.52-3.4-.16-.41-.32-.82-.47-1.23s-.31-.89-.46-1.33a47.85,47.85,0,0,1-1.34-5c-.09-.41-.17-.82-.25-1.23a54.88,54.88,0,0,1-.79-5.91c0-.34-.05-.68-.07-1s0-.43,0-.64c0-.39,0-.78,0-1.17A83.5,83.5,0,0,1,245.2,658c.72-5.89,5.49-2.74,8.42-1.6,13.19,5.11,26.09,11.05,39.48,15.57,4.78,1.62,9.57,3.34,14.44,4.84l1.22.37c1.94.59,3.89,1.15,5.87,1.64l1.54.38h0c.84.2,1.68.38,2.52.56.62.13,1.24.26,1.87.36l.06,0,1.86.31h0c1.27.2,2.55.37,3.85.51l1.31.12h0c.87.07,1.75.13,2.64.17l1.33,0c1.12,0,2.24,0,3.38,0l1.55-.07q1.56-.11,3.15-.27l1.6-.2q.71-.09,1.41-.21c-12.38-7.61-25-10.7-37.57-13.53-1.89-.44-3.77-.92-5.65-1.41l-1.86-.5c-1.63-.45-3.26-.91-4.87-1.39-2.51-.75-5-1.55-7.49-2.38-1.22-.41-2.43-.83-3.64-1.27q-2.2-.79-4.38-1.63c-1.09-.41-2.19-.84-3.27-1.28-.69-.27-1.38-.56-2.07-.85s-1.11-.45-1.67-.69C241.76,643.92,228,622.17,226.53,592c-.08-1.71-.11-3.41-.11-5.14,0-.45,0-.9,0-1.35s0-.87,0-1.32c0-.88,0-1.78,0-2.69,0-1.79.06-3.61.06-5.49l6.41,2.43L255.49,587q7.18,2.73,14.36,5.43,5,1.88,9.95,3.69l4.45,1.63,19.11,7,6.36,2.31,6.44,2.33,6,2.15.64.23,6,2.11c7.46,2.6,14.94,5.13,22.47,7.52l3,1c1.63.51,3.27,1,4.9,1.51l5,1.5q4.31,1.27,8.64,2.46l2.77.76,2.67.71q2.76.72,5.53,1.41c1.09.28,2.19.55,3.29.81q3.93.94,7.84,1.77,5.89,1.23,11.74,2.2c2.6.44,5.18.82,7.77,1.17s5.17.66,7.75.93c1.29.13,2.58.26,3.86.37s2.52.22,3.78.31l.33,0,3.12.21,1,.06,2.75.14c.87.05,1.74.09,2.61.11l2.71.09,2.89.06q1.91,0,3.81,0h0c1.17,0,2.34,0,3.5,0,.56,0,1.11,0,1.66,0,1.27,0,2.54,0,3.81-.1l2.7-.11c1.52-.07,3-.15,4.56-.25,1.31-.08,2.63-.18,3.94-.28l.2,0,2.59-.22.95-.09c.6-.05,1.2-.11,1.79-.18q3.08-.3,6.13-.69c.54-.06,1.07-.13,1.61-.21s1.28-.16,1.93-.26l1.48-.21q4-.59,8.1-1.31c1.12-.2,2.25-.4,3.37-.62,1.29-.25,2.58-.5,3.87-.77,1.54-.31,3.08-.65,4.63-1,1.13-.25,2.27-.52,3.41-.79s2.47-.6,3.7-.91l.52-.13c1.23-.31,2.45-.64,3.68-1s2.62-.72,3.93-1.09,2.62-.76,3.93-1.16,2.47-.75,3.71-1.14,2.75-.88,4.13-1.34q3.91-1.31,7.81-2.73c1.3-.47,2.6-.95,3.89-1.45.94-.35,1.87-.71,2.8-1.08,1.38-.54,2.77-1.09,4.15-1.66,1.07-.43,2.13-.87,3.2-1.32q6.21-2.61,12.37-5.52l3.17-1.52q1.32-.62,2.64-1.29c.86-.41,1.71-.83,2.56-1.26q2.53-1.28,5-2.61c1.68-.88,3.35-1.79,5-2.71s3.29-1.84,4.92-2.78h0q4.9-2.82,9.71-5.79h0c2.41-1.49,4.79-3,7.17-4.52h0l4.42-2.89.31-.2,3.78-2.53.75-.51,4-2.7q2.19-1.5,4.36-3t4.34-3.06q2.18-1.53,4.33-3.09c2.87-2.06,5.74-4.15,8.6-6.24q4.57-3.35,9.13-6.72c1.09-.81,2.31-1.42,4.69-2.84-2.28,13.46-4.28,25.69-6.28,37.93-1.83,11-3.79,21.89-5.47,32.89-.54,3.5-1.6,6.72-4.84,8.17l-2.05.94-2.06,1c-1.38.64-2.74,1.29-4.11,2l-4.09,2-7.66,3.82c-1.1.56-2.21,1.12-3.31,1.66l-2.9,1.44c-3.54,1.74-7.09,3.45-10.67,5.07-1.61.72-3.22,1.43-4.84,2.11s-3.41,1.43-5.13,2.09c-1.15.44-2.3.87-3.46,1.29l-2.24.79-1.26.42-.69.23-1.46.46c-2.7.84-5.44,1.59-8.22,2.23l-1.12.25-1.78.38h0c-.86.17-1.72.32-2.58.47h0l-1.93.32-1,.15-1.81.32-1.12.22-.69.15-.3.06-1,.23c-.37.09-.73.19-1.07.3s-.62.21-.91.33l-.06,0-.4.19c-.18.09-.35.18-.51.28s-.25.15-.37.23a3.89,3.89,0,0,0-1,.9,3.62,3.62,0,0,0-.62,1.08c0,.11-.08.22-.11.33l-.09.46a.78.78,0,0,1,0,.14s0,0,0,0a.17.17,0,0,1,0,.07h0s0,0,0,0a2.73,2.73,0,0,0,0,.41c0,.13,0,.26,0,.4a4.84,4.84,0,0,0,.1.63c0,.21.09.42.15.64l.06.24a1.71,1.71,0,0,0,.09.3,7.48,7.48,0,0,0,.67,1.44l.19.27.22.28a.12.12,0,0,0,.05,0c1.58,1.8,3.86.78,6.36.05h0q2.85-.78,5.68-1.6,4.86-1.4,9.67-3c.7-.22,1.41-.45,2.11-.69l3.23-1.09c.92-.31,1.84-.63,2.75-1,.28-.09.57-.19.85-.3l2.7-1c2.16-.79,4.32-1.62,6.46-2.49q3.56-1.41,7.07-2.93t7-3.15q2.31-1.09,4.61-2.23t4.57-2.32c1.51-.8,3-1.6,4.53-2.43h0l3-1.68,1.49-.86c.5-.28,1-.58,1.49-.87l.9-.52h0c.59-.32,1.16-.59,1.7-.83a13.36,13.36,0,0,1,1.56-.55,7.05,7.05,0,0,1,.73-.18,5.65,5.65,0,0,1,.68-.11c3.85-.4,5.81,2.67,6.38,9.08,1.89,21.24-5.33,38.76-22.61,51.36q-2.43,1.79-4.9,3.51-5.07,3.53-10.33,6.75l-2,1.24C602.26,716.39,600.35,717.49,598.44,718.56Z"/><path class="cls-1" d="M666.42,450.35c-.08-.58-.16-1.17-.25-1.76,0-.32-.1-.63-.16-.95s-.1-.56-.15-.84c-1.52-7.87-3.27-15.72-5.35-23.47C641.23,351.6,606.59,287.08,566.89,225c-10.42-16.3-17-16.15-31.21-.7q-8.71,9.47-17.37,19-14.43,15.84-28.68,31.87h0Q485.28,280,481,285c-.47.52-.93,1-1.38,1.57q-3.53,4-7,8l-.87,1-.73.85q-4.62,5.34-9.21,10.72L456.86,313c-1.64,1.94-3.27,3.89-4.91,5.84q-9.82,11.7-19.39,23.59c-1.7,2.1-2.95,3.18-4,3.43l-.22,0a1.67,1.67,0,0,1-.5,0,2.09,2.09,0,0,1-.49-.13c-1.14-.47-2.22-1.92-3.67-4.08-22.06-32.92-46.79-63.65-75.48-91.08-9.23-8.84-18.51-17.67-29-25l-.84-.57h0l-.1-.07-.09-.06-.61-.38-.45-.26-.1-.06c-.35-.21-.69-.4-1-.57s-.68-.33-1-.48c-.19-.09-.37-.17-.56-.24a11.92,11.92,0,0,0-3.2-.83l-.56,0a4.83,4.83,0,0,0-.85,0h-.31a5.4,5.4,0,0,0-.69.08l-.59.11-.55.14a9.35,9.35,0,0,0-1,.36h0c-.3.12-.59.27-.88.42a19.28,19.28,0,0,0-6,5.64c-3.7,4.89-7,10.09-10.3,15.28-40.81,64.46-70.3,133.5-85,208.66a67.2,67.2,0,0,0-1.29,16.54,50.9,50.9,0,0,0,.89,7.17c.16.81.34,1.61.55,2.4q0,.17.09.36c.17.67.37,1.33.58,2s.43,1.31.67,2a.14.14,0,0,0,0,.06c.24.64.5,1.28.77,1.92s.55,1.26.86,1.89c.41.86.86,1.71,1.33,2.54s.95,1.61,1.47,2.39c.26.4.53.8.81,1.19.15.22.3.43.46.64.7,1,1.46,1.93,2.26,2.87.64.75,1.31,1.48,2,2.21s1.46,1.47,2.23,2.18l1.16,1,.85.73c.14.13.29.25.44.37l1,.79,1.22.95.84.62c.27.22.54.41.82.61,10.42,7.37,20.8,14.79,31.26,22.11,16.16,11.3,31.37,23.51,42.6,40.13,5.25,7.77,13,12.91,21.14,17.5,1.44.81,2.88,1.6,4.34,2.36,4.37,2.29,8.81,4.38,13.32,6.32q1.13.5,2.25,1l0,0c1.17.49,2.35,1,3.53,1.44,2.12.85,4.24,1.67,6.38,2.46,2,.74,3.94,1.45,5.92,2.16,1.63.58,3.25,1.14,4.88,1.7,3.05,1.06,6.12,2.08,9.19,3.1l8.19,2.72c5,1.67,10.07,3.36,15.07,5.14a133.05,133.05,0,0,0,17.87,5.17l1.83.38,1.36.26,2.19.41a.86.86,0,0,1,.17,0l.18,0h0l.36.06,2.19.34,1.7.24c.28.05.56.08.84.11,1.72.23,3.44.42,5.17.57,4.2.39,8.43.57,12.66.55,2.69,0,5.39.16,8.07.06.62,0,1.24-.05,1.86-.11a57.89,57.89,0,0,0,11.92-1.85c33.76-10.65,67.17-22.27,98.27-39.51a82,82,0,0,0,25-20.71c20.72-26.33,44.79-49.4,68.66-72.72A54.54,54.54,0,0,0,657,483c.3-.36.59-.73.87-1.1s.41-.54.61-.82.47-.64.7-1,.45-.65.66-1,.43-.66.64-1,.54-.9.8-1.35c.13-.22.26-.44.38-.67s.31-.57.46-.86l.18-.34.39-.78,0-.07.06-.13c.14-.28.27-.57.4-.86s.33-.74.48-1.11c.36-.86.69-1.74,1-2.63.15-.44.29-.89.42-1.34.21-.69.39-1.39.56-2.09s.32-1.38.44-2.09A44.08,44.08,0,0,0,666.42,450.35ZM645,435.28l-3.61-3.21-2-1.82-12.21-10.86c-9.43-8.39-18.73-16.66-28-24.93l-7.93-7.09q-46.46-41.69-93-83.31c-1.75-1.57-3.75-2.86-5.65-4.25-.55-.41-1.1-.81-1.62-1.23-.35-.27-.69-.56-1-.85l-.47-.44a10.33,10.33,0,0,1-1.18-1.33c-.12-.16-.23-.32-.34-.49s-.2-.33-.29-.5a6.37,6.37,0,0,1-.46-1.08,7.25,7.25,0,0,1,.9-5.75c3.36-6.22,9.56-8.89,15.32-6.7a22.68,22.68,0,0,1,5.55,3.37c.24.19.47.4.7.61s.61.56.9.85.57.6.85.91c1.12,1.14,2.23,2.29,3.36,3.42l1.9,1.92,3.17,3.18,4.24,4.21,4.29,4.2q3,2.91,6,5.79l4.36,4.16q5.21,4.95,10.47,9.83,3.5,3.25,7,6.51,5.28,4.88,10.59,9.7,4.88,4.44,9.76,8.85,10.2,9.26,20.4,18.48,4.29,3.88,8.55,7.79,5.46,5,10.87,10,3.52,3.26,7,6.53c6,5.66,12,11.47,18,17.15.31.29.61.58.9.88s.59.6.87.9q.87.9,1.65,1.83c.26.31.52.62.77.94,6.3,7.88,9.28,17.32,10.15,28.74.06.93.12,1.87.16,2.83Zm-26.37-92.76-.14-.15a1,1,0,0,0-.14-.15c-9.39-8.62-18.69-17.35-28-26.06q-30.29-28.29-60.55-56.6l-.3-.29-.3-.29a21.77,21.77,0,0,1-2-2.23c-.14-.18-.28-.36-.4-.54s-.31-.46-.46-.69-.24-.4-.35-.6-.21-.4-.3-.59a5,5,0,0,1-.21-.48l-.12-.3a5.11,5.11,0,0,1-.22-.7,4.2,4.2,0,0,1-.11-.45,6,6,0,0,1-.11-.7,2.64,2.64,0,0,1,0-.28,5.21,5.21,0,0,1,0-.79s0-.11,0-.16,0-.36.07-.54a1.59,1.59,0,0,1,.06-.3c0-.2.1-.4.16-.59a7.47,7.47,0,0,1,.4-1,9.17,9.17,0,0,1,1.18-1.81q.24-.3.51-.6c.19-.2.38-.4.58-.59a20.33,20.33,0,0,1,2.1-1.77l.41-.29a3.62,3.62,0,0,1,.41-.27,7.51,7.51,0,0,1,.82-.47l.22-.11a5.07,5.07,0,0,1,.69-.29l.45-.16a5.57,5.57,0,0,1,5.94,1.64c3.18,3.25,6.45,6.39,9.79,9.46l4,3.66q3,2.73,6.13,5.41l4.1,3.57c4.11,3.57,8.24,7.12,12.32,10.73.68.6,1.36,1.2,2,1.81,2,1.81,4,3.64,6,5.5l1.89,1.77q2,1.92,4,3.87l1.93,1.93c3.82,3.87,7.51,7.89,11,12.12q1.68,2,3.24,4.13t3,4.26c.5.72,1,1.45,1.43,2.18s.93,1.45,1.39,2.19c.9,1.48,1.78,3,2.64,4.49s1.68,3,2.48,4.56h0c.48.94,1,1.89,1.44,2.84.18.35.35.71.53,1.07.26.52.51,1.05.77,1.58.63,1.29,1.23,2.59,1.82,3.9.37.79.73,1.58,1.07,2.38.18.4.36.8.53,1.2s.34.81.52,1.21l.22.44c.22.47.46.94.7,1.43.39,1.42-.49,2.21-1.5,2.84a3.23,3.23,0,0,1-.68.33,2.14,2.14,0,0,1-.32.08.38.38,0,0,1-.15,0,1.37,1.37,0,0,1-.35,0C620,344.18,619.32,343.22,618.65,342.52Zm-60.4-115.83.44.44c.14.15.28.31.41.47s.2.25.29.38a1.77,1.77,0,0,1,.16.22l.28.42.27.44,5.72,9.7q2.46,4.16,4.89,8.32,1.71,2.89,3.4,5.8c.5.84,1,1.68,1.48,2.52q3.21,5.46,6.39,10.93c.06.1.12.2.19.3l.4.63a4,4,0,0,1,.35.64,2,2,0,0,1,.19.55.83.83,0,0,1,0,.15,1.18,1.18,0,0,1,0,.26,1.39,1.39,0,0,1-.06.4.7.7,0,0,1-.08.23,1.74,1.74,0,0,1-.15.26,3.12,3.12,0,0,1-.83.76,2.59,2.59,0,0,1-.94.41,1.69,1.69,0,0,1-.55,0l-.09,0a4.27,4.27,0,0,1-1.8-1.14l-.27-.25-2.54-2.2-2.64-2.3-29.06-25.36q-.45-.41-.87-.84l-.52-.6c-.09-.11-.18-.22-.26-.34a7.23,7.23,0,0,1-.6-.92c-.11-.22-.22-.44-.31-.67s-.13-.38-.18-.56,0-.19-.07-.29,0-.2-.05-.29a3.11,3.11,0,0,1,0-.32,5,5,0,0,1,.61-2.7,14.56,14.56,0,0,1,9.81-7.19,9.12,9.12,0,0,1,5.77,1.15A7,7,0,0,1,558.25,226.69Zm-52.1,43.1c0-.23.08-.46.13-.68a12.08,12.08,0,0,1,3.13-5,13.57,13.57,0,0,1,4.18-3.27l.39-.16a3.45,3.45,0,0,1,.52-.16l.31-.08a5,5,0,0,1,.56-.09h.08l.57,0a6.26,6.26,0,0,1,1.74.25l.42.13.32.12.71.3.32.16a15.86,15.86,0,0,1,1.38.81l.54.38c.37.26.74.55,1.13.86s.78.65,1.18,1l.62.56,0,0q48.87,45.21,97.86,90.33c.71.65,1.39,1.32,2.05,2,.5.5,1,1,1.45,1.54.93,1,1.82,2.11,2.66,3.19.42.54.82,1.09,1.22,1.64a58.65,58.65,0,0,1,4.23,6.91q1.25,2.38,2.28,4.86c.35.82.68,1.65,1,2.49.24.63.47,1.26.69,1.9s.44,1.27.66,1.91c.29.85.56,1.71.8,2.58.18.65.37,1.3.55,2s.35,1.31.52,2q.66,2.64,1.22,5.32a2.21,2.21,0,0,0-.05.25c-.23,1.28.25,2.64-1.23,3a2.25,2.25,0,0,1-1.38-.09,1.34,1.34,0,0,1-.24-.12,3.09,3.09,0,0,1-.63-.48,3.28,3.28,0,0,1-.31-.34c-.37-.4-.7-.86-1.06-1.25l-.26-.26q-37.58-34.5-75.12-69.06-25-23-50-46l0,0-.44-.42c-.15-.13-.29-.27-.43-.41a21.1,21.1,0,0,1-2.58-3c-.1-.13-.19-.26-.28-.4s-.2-.3-.28-.44a3.49,3.49,0,0,1-.18-.31c-.08-.14-.15-.27-.21-.4s-.11-.22-.16-.33a8.93,8.93,0,0,1-.35-.88,4.27,4.27,0,0,1-.13-.48A6,6,0,0,1,506.15,269.79ZM314,239c25.49,26.24,55.34,48,78.14,77,.94,1.19,1.89,2.39,2.82,3.61.46.61.92,1.23,1.37,1.85s.91,1.24,1.33,1.88c.65.95,1.28,1.92,1.88,2.91.21.33.41.67.59,1,.52.9,1,1.82,1.46,2.76s.83,1.8,1.19,2.74c.08.2.16.4.23.61.3.78.57,1.58.8,2.4q.12.38.21.75c.11.38.21.77.3,1.16-13.61-11.21-27.19-22.47-40.85-33.63q-29.65-24.16-59.37-48.25c-6.68-5.41-7.23-11.43-1.48-16.57C306.36,235.83,310.47,235.37,314,239Zm-15.14,291.1L218,457.64c-.24-.22-.48-.44-.7-.66a8.15,8.15,0,0,1-.65-.67h0a9,9,0,0,1-.76-.92c-.12-.15-.23-.31-.34-.46-.22-.31-.41-.63-.59-.94l-.26-.49c-.07-.15-.14-.31-.2-.47a5.33,5.33,0,0,1-.23-.63,6.42,6.42,0,0,1-.23-.83,4.49,4.49,0,0,1-.1-.64.85.85,0,0,1,0-.23,5.68,5.68,0,0,1,0-.59v0a5.79,5.79,0,0,1,0-.72v0a6.12,6.12,0,0,1,.11-.71l.09-.41a.83.83,0,0,1,0-.15l.18-.57a0,0,0,0,1,0,0c.07-.18.14-.37.22-.55a3.65,3.65,0,0,1,.18-.41h0l.1-.2s0,0,0,0h0v0a.83.83,0,0,1,.07-.13h0a2.07,2.07,0,0,0,.17-.29l.06-.11h0l0,0c.07-.13.15-.25.23-.37s.25-.37.38-.55.37-.48.58-.73c2.12-2.58,5-4.32,7.78-1.11,13.59,15.57,30.4,27.64,45.59,41.46,14.85,13.52,30.27,26.43,45.44,39.6.35.3.7.6,1,.92l.25.25c.12.13.23.25.33.38a3.92,3.92,0,0,1,.27.33,3.09,3.09,0,0,1,.26.37c.08.12.15.25.22.37a3.2,3.2,0,0,1,.31,2.47,4.11,4.11,0,0,1-.38.88,7.07,7.07,0,0,1-.38.61,4.36,4.36,0,0,1-.41.55,5.35,5.35,0,0,1-.45.5l-.48.45-.51.4a9,9,0,0,1-1,.62l-.49.24-.4.17a4.09,4.09,0,0,1-.49.18,15.34,15.34,0,0,1-2.31.59l-.94.14c-.31,0-.63.09-.94.12s-.91-.11-1.36-.19l-.67-.13a16.47,16.47,0,0,1-2-.57l-.82-.32c-.28-.12-.56-.24-.84-.38s-.55-.27-.82-.42-.4-.22-.59-.34l-.58-.37c-.19-.12-.38-.25-.56-.39s-.37-.27-.55-.41l-.53-.43Zm-36.1-197.41c16.63,14.72,33.25,29.46,50,44q76.08,66,152.34,131.78C470.39,513,476.2,517,483,522.13c-2.71.14-5.38.22-8,.22q-1.32,0-2.61,0c-.65,0-1.3,0-1.94-.06l-1.91-.08-1.27-.08c-.61,0-1.21-.08-1.82-.14s-1.19-.1-1.79-.17l-1.06-.12c-.95-.11-1.89-.23-2.82-.37s-1.62-.26-2.42-.41-1.61-.31-2.4-.48l-1.21-.27L453,520l-2-.54-.92-.26c-.31-.09-.61-.18-.92-.29-1.28-.4-2.54-.84-3.79-1.32-.32-.11-.63-.24-.94-.37l-.93-.39a60.63,60.63,0,0,1-17.56-11.45C370,454,312.9,404,255.9,353.92c-5.36-4.71-8.53-10.08-6.92-17.41a10.14,10.14,0,0,1,6.83-7.57,4.4,4.4,0,0,1,1.44-.26h.12s0,0,0,0h0l.2,0a3.27,3.27,0,0,1,.87.22C260.14,329.61,261.31,331.41,262.73,332.66Zm-11.92,23.78c21.5,22.33,45.79,41.59,68.7,62.38,37.11,33.66,74.55,67,111.83,100.44,1,.89,2.43,1.55,2.4,3.85l-1.7.4-.43.09c-.48.11-1,.2-1.45.29s-.91.18-1.37.25h0l-1.21.19-1.14.16-1.13.13-.3,0q-.51.06-1,.09c-.64.06-1.27.1-1.9.12s-1.16,0-1.74,0a46.25,46.25,0,0,1-4.74-.19l-1.4-.16q-.92-.12-1.83-.27h0c-.57-.1-1.13-.21-1.7-.33l-1.68-.39c-1.11-.29-2.21-.62-3.31-1s-2.17-.81-3.24-1.28l-1.27-.58-.42-.21-1.49-.77c-.59-.31-1.17-.64-1.75-1l-1.18-.74a1.37,1.37,0,0,1-.2-.13c-.42-.27-.83-.54-1.24-.83-1.1-.75-2.19-1.57-3.27-2.45l-.93-.77-.92-.79c-.61-.54-1.22-1.1-1.82-1.68q-16.79-16-33.93-31.63-3.47-3.17-6.94-6.31l-6-5.4q-3.23-2.91-6.48-5.81-5.85-5.22-11.72-10.4l-5.23-4.6q-29.67-26-60-51.35-4.44-3.74-8.87-7.43l-1.2-1h0l-1.15-1,0,0-1.09-1c-.38-.36-.75-.72-1.11-1.1l-.64-.68-.8-.91-.62-.75-.6-.77c-.17-.22-.34-.45-.5-.68l-.47-.69c-.27-.41-.52-.82-.76-1.24s-.41-.75-.61-1.13c-.09-.19-.18-.38-.26-.57a1.51,1.51,0,0,1-.11-.22,1.47,1.47,0,0,1-.1-.22l-.05-.14c-.09-.22-.18-.44-.26-.66s-.16-.42-.23-.64-.11-.32-.16-.48c-.11-.34-.21-.68-.29-1,0-.15-.08-.3-.11-.45s-.07-.29-.1-.45-.08-.38-.11-.58c-.07-.35-.12-.71-.16-1.07s-.07-.68-.09-1a23.68,23.68,0,0,1,1-8.41q.12-.36.27-.72h0c.1-.24.21-.49.32-.72s.13-.29.21-.43a.56.56,0,0,1,.05-.08l.09-.15c.06-.12.13-.24.2-.36s.12-.18.17-.27.25-.37.38-.55.26-.35.4-.52l.3-.35a.39.39,0,0,1,.08-.1,3.92,3.92,0,0,1,.4-.42,7,7,0,0,1,.62-.6,9.15,9.15,0,0,1,2.49-1.66l.35-.14a3.18,3.18,0,0,1,.38-.11l.19-.05.51-.09C247.27,353.88,249,354.6,250.81,356.44ZM239,388.92,389.21,520.66a14,14,0,0,0,2.41,1.44c-14.92,5.34-27.47,2.9-38.73-7.07-28.12-24.87-56.48-49.47-84.73-74.18-6.79-5.94-13.52-11.91-20.28-17.84q-4-3.57-8.13-7.08l-4.11-3.51c-.63-.54-1.21-1.09-1.75-1.65-.22-.22-.42-.45-.62-.68l-.41-.48c-.2-.24-.39-.48-.58-.73s-.36-.49-.52-.73-.29-.43-.41-.64-.26-.42-.38-.63l-.35-.64c-.12-.22-.22-.43-.32-.65-.2-.44-.39-.89-.56-1.33-.09-.22-.17-.45-.24-.68-.17-.51-.31-1-.44-1.56a23.61,23.61,0,0,1-.35-8.09.85.85,0,0,1,0-.23c0-.34.08-.69.14-1s.08-.48.13-.7.11-.45.17-.66a7,7,0,0,1,.42-1.19c.08-.19.17-.37.25-.54s.19-.33.28-.48a3.47,3.47,0,0,1,.31-.44,3.19,3.19,0,0,1,.33-.4,4.42,4.42,0,0,1,3.86-1.49l.16,0,.17,0a3.29,3.29,0,0,1,.43.09,3.81,3.81,0,0,1,.45.13,6.44,6.44,0,0,1,.61.24A9.78,9.78,0,0,1,239,388.92Zm-7.39,27.65,10.06,8.95h0q10.1,8.91,20.22,17.76,5.06,4.43,10.11,8.88l81.81,72.22.25.2h0l.16.15.89.87.46.44c.26.26.57.55.92.88-15.18,4.31-28.05,1.26-38.56-8.38-30.29-27.78-60.95-55.14-91.65-82.46-5.88-5.23-7.74-8.76-7-12.72.06-.28.13-.57.21-.86a11.57,11.57,0,0,1,.51-1.46c.1-.25.22-.52.35-.78s.3-.62.47-.94c.25-.48.53-1,.83-1.48C224.74,412.72,227.43,412.85,231.57,416.57ZM505,504.89c3.78,3.22,7.52,6.5,11.42,9.58,2.73,2.16,5.39,4.48,3.92,8.22-1.39,3.55-5.11,1.09-6.94,2.12-.52,0-1,0-1.55-.09s-1.18-.09-1.76-.15l-.22,0c-.35,0-.69-.07-1-.12-1-.12-2-.27-2.94-.44l-.63-.12-1.13-.23-1.59-.36-1.13-.29c-1.32-.35-2.61-.76-3.89-1.21l-1.32-.49-1.28-.51-1.27-.55c-.45-.2-.89-.4-1.34-.62L491,519c-.7-.35-1.39-.73-2.07-1.11-.39-.23-.79-.45-1.18-.69l-1.16-.71c-.77-.48-1.54-1-2.3-1.52l-.79-.55q-2-1.42-3.93-3c-.48-.39-.95-.79-1.42-1.2L293.93,349.93c-10.53-9.15-21.2-18.13-31.79-27.21a15.27,15.27,0,0,1-1.52-1.46l-.41-.48h0c-.1-.12-.2-.24-.29-.37l-.3-.43-.07-.11a1.74,1.74,0,0,1-.11-.18h0l-.05-.09-.15-.27a6.53,6.53,0,0,1-.31-.66,3.43,3.43,0,0,1-.13-.38.28.28,0,0,1,0-.12l-.09-.32a3.15,3.15,0,0,1-.09-.42,3.32,3.32,0,0,1-.06-.44,4.89,4.89,0,0,1,0-.54,7,7,0,0,1,.79-3.11c.13-.27.28-.54.44-.82a16,16,0,0,1,1.9-2.56c4.52-5.11,8.74-5.52,13.42-1.38,37.76,33.39,76.06,66.14,114.51,98.7q14.41,12.21,28.85,24.4h0Q461.72,468.26,505,504.89ZM215.36,485.53c-.24-.2-.47-.41-.69-.62s-.45-.42-.65-.63c-.37-.37-.71-.75-1-1.13l-.31-.38c-.29-.36-.56-.73-.81-1.1s-.29-.45-.42-.67a6.38,6.38,0,0,1-.38-.67,12.56,12.56,0,0,1-.87-2,5.82,5.82,0,0,1-.2-.68,8.94,8.94,0,0,1-.25-1.23c0-.14,0-.27-.05-.4s0-.31,0-.46a9.1,9.1,0,0,1,.27-2.86,2.79,2.79,0,0,1,.1-.39,9.18,9.18,0,0,1,1.47-2.93c.22-.3.46-.59.72-.88a11.27,11.27,0,0,1,1.33-1.24,10.62,10.62,0,0,1,1.6-1.07,2.14,2.14,0,0,1,.4-.2l.5-.21.51-.15a4.21,4.21,0,0,1,1.43-.1,3.43,3.43,0,0,1,.44.09,2.35,2.35,0,0,1,.43.13l.41.19a5.56,5.56,0,0,1,1.71,1.45c.67.81,1.35,1.62,2,2.41a3.58,3.58,0,0,0,.26.29c.68.8,1.37,1.58,2.07,2.35s1.49,1.65,2.25,2.46,1.52,1.62,2.29,2.42,1.38,1.42,2.08,2.12,1.53,1.54,2.31,2.3c1.54,1.52,3.1,3,4.68,4.5h0q1.72,1.62,3.47,3.22c.58.53,1.17,1.07,1.76,1.59,1.75,1.59,3.52,3.16,5.29,4.73,6.21,5.5,12.49,10.91,18.6,16.51.87.8,1.74,1.6,2.6,2.41s1.57,1.46,2.34,2.21c.94.89,1.88,1.78,2.8,2.69,1.95,1.91,3.93,3.79,5.93,5.66,1,.93,2,1.86,3,2.78l3,2.78c1.61,1.47,3.23,2.94,4.83,4.43l2.41,2.24c6,5.58,8.15,12.38,6.56,21.52C272.22,534,243.72,509.84,215.36,485.53ZM566.9,524.78q-.87.13-1.74.24l-1.09.12c-.5.06-1,.1-1.51.14s-1.15.09-1.73.12l-.8,0c-.43,0-.86,0-1.28,0s-.85,0-1.27,0c-1.13,0-2.23,0-3.33-.1l-1.07-.07c-.45,0-.89-.07-1.33-.12l-.66-.07-.65-.08c-.37,0-.74-.09-1.1-.15l-1.27-.2-1.2-.22c-.63-.12-1.26-.25-1.88-.4l-1.25-.3c-.54-.14-1.07-.29-1.6-.45s-.78-.22-1.16-.35-.62-.19-.92-.3c-.63-.21-1.26-.43-1.88-.67l-.56-.22c-.56-.22-1.12-.45-1.67-.69l-.12-.05c-.52-.23-1-.46-1.53-.7l-.88-.42c-.45-.22-.89-.45-1.32-.68l-1.31-.71c-.5-.28-1-.57-1.49-.87l-1.25-.77-.54-.35-.84-.56c-.45-.3-.9-.61-1.35-.94l-1.59-1.17c-.71-.53-1.41-1.09-2.1-1.67l-1-.88-15-12.86-5.5-4.71q-79.92-68.59-159.92-137.1-31.23-26.79-62.27-53.79c-8.23-7.18-7.86-15.67.42-21.3a6.73,6.73,0,0,1,4.43-1.42,4,4,0,0,1,.48.08,4.11,4.11,0,0,1,.91.33,4.11,4.11,0,0,1,.88.57,7.45,7.45,0,0,1,.85.84c15.58,18.36,35.49,31.82,53.64,47.23l1.71,1.44c.75.64,1.5,1.28,2.26,1.91Q454.26,426.64,565.59,520.1c1.26,1.06,3.12,1.68,3.62,3.84a3,3,0,0,1,.08.45C568.49,524.54,567.69,524.67,566.9,524.78Zm28.65,7.71-.3,0a8.86,8.86,0,0,1-1-.2l-.42-.11a3.31,3.31,0,0,1-.42-.12c-.27-.09-.53-.18-.78-.28a9.88,9.88,0,0,1-1-.45l-.17-.08-.33-.18-.36-.2-.37-.21c-.29-.18-.57-.37-.85-.57s-.47-.33-.71-.51a.18.18,0,0,1-.07,0c-.35-.26-.69-.52-1-.79l-1.08-.89h0Q484.76,442.21,382.86,356.7L298.65,286a76.62,76.62,0,0,0-9.28-6.52h0a16.36,16.36,0,0,1-1.37-.93,10.12,10.12,0,0,1-.79-.65h0a13.65,13.65,0,0,1-1-1l-.38-.48a8.38,8.38,0,0,1-1.1-2,6.57,6.57,0,0,1-.28-1l-.06-.3a4.64,4.64,0,0,1-.1-.76c0-.1,0-.2,0-.3a7.64,7.64,0,0,1,0-1.07,10.28,10.28,0,0,1,.18-1.31c0-.22.1-.44.15-.68s.13-.45.2-.68.15-.46.23-.7h0q.25-.71.6-1.44l.52-1.11.39-.78c.12-.25.24-.49.37-.72.25-.49.51-.94.76-1.37s.66-1.09,1-1.55a12.06,12.06,0,0,1,1.49-1.78c.17-.16.34-.32.51-.45a4.21,4.21,0,0,1,.51-.38l.39-.24a5.33,5.33,0,0,1,.81-.37,2.77,2.77,0,0,1,.41-.12,3.45,3.45,0,0,1,.56-.1,4.41,4.41,0,0,1,.52,0,4.52,4.52,0,0,1,.52,0,6.29,6.29,0,0,1,.72.11,2.49,2.49,0,0,1,.37.09l.58.18a.39.39,0,0,1,.14.05l.34.13a11.59,11.59,0,0,1,1.35.64l.37.21a27.57,27.57,0,0,1,2.91,2l1.38,1.08.77.64L373,320.41q77.7,64.84,155.43,129.7,35.37,29.52,70.75,59l0,.05c.21.17.42.35.64.51.61.48,1.24.95,1.85,1.44l.5.4c.34.27.67.56,1,.86l.33.33c.17.17.33.35.49.53h0c.16.18.31.36.45.55l.05,0,.16.2.25.29c.26.28.57.56.89.85l.22.18.22.18.62.5.45.37.05,0,.22.18.39.32a9.66,9.66,0,0,1,1,1l.21.26a3.06,3.06,0,0,1,.12,3.8c-3,4.83-6.45,10.17-13.09,10.54ZM626.76,501a1.81,1.81,0,0,1,0,.23,2,2,0,0,1-.06.32c0,.1,0,.21-.08.32a7.76,7.76,0,0,1-.59,1.43c-.07.14-.15.29-.24.44s-.36.6-.57.93-.44.66-.7,1l-.4.55c-.41.56-.87,1.16-1.39,1.8l-.56.69c-3.64,4.49-7.31,5.82-12.49,1.49l-6.93-5.78c-1-.87-2.08-1.75-3.13-2.61q-60.81-50.9-121.83-101.47l-39.19-32.69c-3.1-2.59-6.4-5.06-6.1-11.17l0,0A16,16,0,0,1,441.19,345c4.73-2.41,7.8,1.12,11.09,4h0q46,39.57,92.06,78.95,39.07,33.44,78.2,66.8c.7.6,1.31,1.15,1.84,1.66l.56.57q.25.27.48.54a4.33,4.33,0,0,1,.39.51l.26.38a0,0,0,0,1,0,0,1.74,1.74,0,0,1,.11.18,3.91,3.91,0,0,1,.42,1c0,.11.06.22.08.33a2.17,2.17,0,0,1,0,.25l0,.21A4.46,4.46,0,0,1,626.76,501Zm17.42-20.64a4.67,4.67,0,0,1,0,.52,4.9,4.9,0,0,1-.11.74c0,.12,0,.24-.07.35s-.12.46-.19.7a0,0,0,0,1,0,0c-.07.21-.14.41-.22.62s-.23.58-.36.87-.33.68-.51,1c0,0,0,0,0,0-.13.21-.25.43-.37.64s-.37.59-.57.88a20.09,20.09,0,0,1-1.49,2c-.13.16-.27.32-.41.47-.28.32-.56.62-.85.91l-.66.63a17.36,17.36,0,0,1-2.09,1.65c-.31.2-.63.39-1,.57a9.19,9.19,0,0,1-1.87.78,4.89,4.89,0,0,1-1.94.15h0l-.57-.13-.37-.13-.48-.21-.27-.15c-.18-.1-.35-.21-.51-.32s-.51-.37-.76-.58l-.75-.63q-80.91-70.11-161.84-140.2l-1.34-1.16c-1.56-1.35-3.13-2.71-4.72-4l-2.05-1.69c-.92-.74-1.85-1.47-2.79-2.18-4.06-3.06-6.27-6.29-3.16-11.34.38-.61.78-1.19,1.19-1.74.21-.27.42-.53.64-.79s.3-.36.47-.53a.28.28,0,0,1,.09-.1c.09-.11.19-.21.29-.31a7.62,7.62,0,0,1,.63-.64,6.37,6.37,0,0,1,.55-.5c.23-.21.47-.41.71-.59s.37-.28.55-.41l.26-.18a6.42,6.42,0,0,1,.65-.41,7.06,7.06,0,0,1,.75-.42c.25-.13.5-.25.75-.35a10.42,10.42,0,0,1,2.17-.67,2.25,2.25,0,0,1,.36-.06l.48-.06h.16a7.84,7.84,0,0,1,1.37,0l.29,0,.46.07c.32.06.62.13.93.22l.46.16a4.37,4.37,0,0,1,.46.18h0c.14.07.29.13.43.21.49.27,1,.56,1.45.86l1.05.69c.26.17.51.35.76.53s.55.41.82.62c.77.61,1.52,1.24,2.23,1.92q6.3,5.54,12.59,11.1L504.09,356l10.25,9.07q10.24,9,20.5,18.08l0,0L546.07,393q15.95,14,32,27.79,4.24,3.66,8.5,7.28Q597,437,607.46,445.74l1.37,1.15q2.71,2.26,5.44,4.52c.37.31.74.62,1.12.92q11.86,9.85,23.9,19.51a20.39,20.39,0,0,1,3,2.83,10.88,10.88,0,0,1,.68.95,8.24,8.24,0,0,1,.56,1.06,3.51,3.51,0,0,1,.21.57A8.3,8.3,0,0,1,644.18,480.34Zm15.34-18c0,.36-.09.71-.15,1.06s-.12.7-.2,1.05-.1.46-.16.68-.15.56-.24.83-.15.45-.23.67-.21.52-.33.77-.24.5-.38.75-.41.66-.64,1a4.3,4.3,0,0,1-.38.49l-.4.44a10.52,10.52,0,0,1-3.23,2.24c-4.54,2.1-7-1.21-9.79-3.61q-74.73-65.31-149.55-130.53c-6.59-5.75-13.49-11.12-20.24-16.69-2.33-1.92-3.82-3.67-4.46-5.43l-.12-.36c0-.14-.08-.27-.11-.41s-.06-.26-.08-.4a5.49,5.49,0,0,1,0-1.67,5.16,5.16,0,0,1,.09-.52l.06-.27a5.72,5.72,0,0,1,.25-.81A15.87,15.87,0,0,1,472,307.2c6.47-7.82,9.13-8.46,15.56-2.78l10.57,9.34,2.37,2.11q35,31,70,62.06c1,.87,2,1.74,3,2.62l11.69,10.39q34.23,30.29,68.65,60.37a20.34,20.34,0,0,1,4,4.48c.13.21.25.42.37.63s.23.43.33.65a12.68,12.68,0,0,1,.56,1.37,11,11,0,0,1,.39,1.48c.05.26.09.52.13.78s.06.54.08.82S659.56,462.09,659.52,462.37Z"/><path class="cls-1" d="M770.58,676.43c.12-.18.23-.36.34-.55s.13-.23.19-.34C770.93,675.84,770.75,676.13,770.58,676.43ZM677.53,117.24c.15.2.32.41.53.65C677.86,117.66,677.68,117.44,677.53,117.24Zm93.05,559.19a1,1,0,0,1-.08.14c-.36.62-.72,1.24-1.09,1.85.51-.84,1-1.69,1.51-2.54.06-.12.13-.23.19-.34C770.93,675.84,770.75,676.13,770.58,676.43ZM677.53,117.24c.15.2.32.41.53.65C677.86,117.66,677.68,117.44,677.53,117.24ZM283.59,46.62h0Zm.23,0h-.19l.2,0Zm-.77-.07-.67,0,.76.07Zm-1.94-.16H281l.39,0Zm-2.93-.22H278l.32,0Zm492.4,630.24a1,1,0,0,1-.08.14c-.36.62-.72,1.24-1.09,1.85.51-.84,1-1.69,1.51-2.54.06-.12.13-.23.19-.34C770.93,675.84,770.75,676.13,770.58,676.43ZM677.53,117.24c.15.2.32.41.53.65C677.86,117.66,677.68,117.44,677.53,117.24ZM285.41,46.8h-.16l.21,0h.13l.68.07.51.05C286.32,46.89,285.87,46.84,285.41,46.8Zm-1.82-.18h0Zm.23,0h-.19l.2,0Zm-.77-.07-.67,0,.76.07Zm-1.94-.16c-.32,0-.63-.06-.94-.07l.87.07.39,0Zm-2.93-.22H278l.32,0,.57,0Zm-.45,0h0Zm-169,603.27h0Zm661.81,27a1,1,0,0,1-.08.14c-.36.62-.72,1.24-1.09,1.85.51-.84,1-1.69,1.51-2.54.06-.12.13-.23.19-.34C770.93,675.84,770.75,676.13,770.58,676.43ZM677.53,117.24c.15.2.32.41.53.65C677.86,117.66,677.68,117.44,677.53,117.24ZM285.41,46.8h-.16l.21,0h.13l.68.07.51.05C286.32,46.89,285.87,46.84,285.41,46.8Zm-1.82-.18h0Zm.23,0h-.19l.2,0Zm-.77-.07-.67,0,.76.07Zm-1.94-.16c-.32,0-.63-.06-.94-.07l.87.07.39,0Zm-2.93-.22H278l.32,0,.57,0Zm-.45,0h-.22l.23,0h0Zm-169,603.27h0Zm661.81,27a1,1,0,0,1-.08.14c-.36.62-.72,1.24-1.09,1.85.51-.84,1-1.69,1.51-2.54.06-.12.13-.23.19-.34C770.93,675.84,770.75,676.13,770.58,676.43ZM677.53,117.24c.15.2.32.41.53.65C677.86,117.66,677.68,117.44,677.53,117.24ZM283.59,46.62h0Zm1.82.18h-.25l-.3,0c-.17,0-.35,0-.52-.06l-.52,0h-.19l.2,0h.24l.29,0,1.1.11h.13l.68.07.51.05C286.32,46.89,285.87,46.84,285.41,46.8Zm-2.36-.23-.67,0,.76.07Zm-1.94-.16c-.32,0-.63-.06-.94-.07l.87.07.39,0Zm-2.93-.22H278l.32,0,.57,0Zm-.45,0h-.22l.23,0h0Zm-169,603.27h0l0,0h0Zm661.81,27a1,1,0,0,1-.08.14c-.36.62-.72,1.24-1.09,1.85.51-.84,1-1.69,1.51-2.54.06-.12.13-.23.19-.34C770.93,675.84,770.75,676.13,770.58,676.43ZM677.53,117.24c.15.2.32.41.53.65C677.86,117.66,677.68,117.44,677.53,117.24ZM283.59,46.62h0Zm.23,0h-.19l.2,0Zm-.77-.07-.67,0,.76.07Zm2.36.23h-.25l-.3,0c-.17,0-.35,0-.52-.06l-.29,0h0l.29,0,1.1.11h.13l.68.07.51.05C286.32,46.89,285.87,46.84,285.41,46.8Zm-4.3-.39c-.32,0-.63-.06-.94-.07l.87.07.39,0Zm-2.93-.22H278l.32,0,.57,0Zm-.45,0h-.22l.23,0h0Zm-169,603.27h0l0,0h0Zm661.81,27a1,1,0,0,1-.08.14c-.36.62-.72,1.24-1.09,1.85.51-.84,1-1.69,1.51-2.54.06-.12.13-.23.19-.34C770.93,675.84,770.75,676.13,770.58,676.43ZM677.53,117.24c.15.2.32.41.53.65C677.86,117.66,677.68,117.44,677.53,117.24ZM285.41,46.8h-.25l-.3,0c-.17,0-.35,0-.52-.06l-.29,0h0l.29,0,1.1.11h.13l.68.07.51.05C286.32,46.89,285.87,46.84,285.41,46.8Zm-1.87-.18h0Zm.28,0h-.19l.2,0Zm-.77-.07-.67,0,.76.07Zm-1.94-.16c-.32,0-.63-.06-.94-.07l.87.07.39,0Zm-2.93-.22H278l.32,0,.57,0Zm-.45,0h-.22l.23,0h0Zm-169,603.27h0l0,0h0Zm661.81,27a1,1,0,0,1-.08.14c-.36.62-.72,1.24-1.09,1.85.51-.84,1-1.69,1.51-2.54.06-.12.13-.23.19-.34C770.93,675.84,770.75,676.13,770.58,676.43ZM677.53,117.24c.15.2.32.41.53.65C677.86,117.66,677.68,117.44,677.53,117.24ZM285.41,46.8h-.25l-.3,0c-.17,0-.35,0-.52-.06l-.29,0h0l.29,0,1.1.11h.13l.68.07.51.05C286.32,46.89,285.87,46.84,285.41,46.8Zm-1.59-.16h-.19l.2,0Zm-.23,0h0Zm-.54,0-.67,0,.76.07h-.09Zm.31,0h-.07l.22,0Zm-2.25-.19c-.32,0-.63-.06-.94-.07l.87.07.39,0Zm-2.93-.22H278l.32,0,.57,0Zm-.45,0h-.22l.23,0h0Zm-169,603.27h0l0,0h0Zm661.81,27a1,1,0,0,1-.08.14c-.36.62-.72,1.24-1.09,1.85.51-.84,1-1.69,1.51-2.54.06-.12.13-.23.19-.34C770.93,675.84,770.75,676.13,770.58,676.43ZM677.53,117.24c.15.2.32.41.53.65C677.86,117.66,677.68,117.44,677.53,117.24ZM285.41,46.8h-.25l-.3,0c-.17,0-.35,0-.52-.06l-.29,0h0l.29,0,1.1.11h.13l.68.07.51.05C286.32,46.89,285.87,46.84,285.41,46.8Zm-1.57-.15h0Zm-.25,0h0Zm-.23,0-.18,0h-.13l-.67,0,.76.07h0s0,0,0,0h.09l.22,0Zm-2.25-.19c-.32,0-.63-.06-.94-.07l.87.07.39,0Zm-2.93-.22h-.32a0,0,0,0,0,0,0H278l.32,0,.57,0Zm-.45,0h-.22l.23,0h0Zm-169,603.27h0l0,0h0ZM770.5,676.57c-.36.62-.72,1.24-1.09,1.85.51-.84,1-1.69,1.51-2.54.06-.12.13-.23.19-.34-.18.3-.36.59-.53.89A1,1,0,0,1,770.5,676.57Zm-41.88,62.87h-.08l.22,0h-.14ZM678.06,117.89c-.2-.23-.38-.45-.53-.65C677.68,117.44,677.85,117.65,678.06,117.89ZM353,41.12c.21.11.43.23.64.36-.21-.13-.43-.25-.65-.37Zm-67.77,5.67h-.09l-.3,0c-.17,0-.35,0-.52-.06l-.29,0h0l.29,0,1.1.11h.13l.68.07.51.05c-.46-.06-.91-.11-1.37-.15ZM284,46.67h0Zm-.15,0h0Zm-.29,0h0Zm-.25,0,.22,0-.15,0Zm-.91-.08.76.07h-.09Zm-2.21-.18.87.07.39,0-.32,0C280.79,46.38,280.48,46.35,280.17,46.34Zm-2-.15h-.29a0,0,0,0,0,0,0H278l.32,0,.57,0-.75-.06Zm-.64,0,.23,0h-.23Zm-.24,0h.22L275.57,46ZM218.39,88l0,0,0,0S218.39,88,218.39,88ZM108.73,649.42l0,0h0Zm-82-332.91c.13-.27.27-.53.41-.79.05-.09.09-.19.14-.28-.48.91-.95,1.83-1.42,2.75Zm-2.39,4.74c.5-1,1-2,1.52-3.06-.52,1-1,2.07-1.55,3.11Zm835.48,156.5c-1.88-22.74-7-44.7-12.3-66a15.36,15.36,0,0,0,8.06-9.82c4.35-16.4,2.06-30.65-2.16-42.52a15.33,15.33,0,0,0,6.43-13.62c-1.45-19.66-8-36.22-16.29-51.49l.26-.2A15.31,15.31,0,0,0,849,277.41c-10.53-33.47-29.73-59.54-59.47-80.27a15.31,15.31,0,0,0-5.5-19.7c-16.65-10.62-35.9-24.09-52.71-36.41l.32-.33a15.33,15.33,0,0,0-.6-21.67,222.05,222.05,0,0,0-75.41-47.28,2.65,2.65,0,0,0,.13-.54A15.28,15.28,0,0,0,649,54.8c-12.83-8.08-28.43-16.74-46.89-19.74-4-.63-7.86-1.06-11.61-1.46-3.33-.37-6.52-.71-9.52-1.17A179.46,179.46,0,0,0,553.33,30a117.38,117.38,0,0,0-15.56,1c3.83-7.14,3.85-11.62,2.13-19.14A15.31,15.31,0,0,0,514.65,4a125.38,125.38,0,0,1-29.47,19.71,17.86,17.86,0,0,0-5.12-11c-2.78-2.83-7.75-6.2-15.7-6.2a38.44,38.44,0,0,0-6.85.7C448,9,442.81,15.39,440,18.84a17.75,17.75,0,0,1-1.53,1.8c-.42.41-.79.74-1.1,1-.22-.22-.46-.47-.73-.77l-.26-.43a23.3,23.3,0,0,0-9.65-9.27,15.31,15.31,0,0,0-18.54,4.08c-4.6,5.59-5.24,11.67-5.6,14.93-.05.46-.08.91-.18,1.41a13,13,0,0,1-1.12,3.6,13.72,13.72,0,0,1-3.85-.77c-2.91-.93-5.4-4.07-9.16-9.16-1-1.38-2-2.91-3.13-4.52-3.08-4.66-6.57-9.85-11.94-14.66A14.86,14.86,0,0,0,371,4.43,15.32,15.32,0,0,0,350,9.5a28,28,0,0,0-4.4,15.63c-10.6,1.32-14.9,7.69-16.6,11.69a16.15,16.15,0,0,0-.79,2.44c-16.59-4.2-33.73-7.53-51.82-8.47h-.8a15.31,15.31,0,0,0-13,23.38,49.37,49.37,0,0,0,12.53,13.36l-1.85.15c-7.41.57-17.19,1.24-27,1.24a174.72,174.72,0,0,1-19-1,31.81,31.81,0,0,0-3.52-.2c-7.91,0-14.58,3.59-18.36,9.93a19.16,19.16,0,0,0-2.25,5.89c-5,1.44-10.14,2.78-15.43,4.16-24.74,6.47-50.32,13.16-72.09,32.86a15.07,15.07,0,0,0-1.84,2A15.3,15.3,0,0,0,116.47,144C93.22,162.18,77.14,186.7,61.41,210.7c-3.07,4.69-6.16,9.4-9.32,14.09A16.5,16.5,0,0,0,51,226.66a15.31,15.31,0,0,0,7.08,20.45c-7,7.35-13.37,14.81-19.29,22.45A256.17,256.17,0,0,0,7.38,321.39l-.07.12C.55,334,8.44,342.13,10.13,343.69a18.21,18.21,0,0,0,10.58,4.66,324.46,324.46,0,0,0-20,49.21,15.29,15.29,0,0,0,17.7,19.68,130.19,130.19,0,0,0,3.08,53.42c1.53,11,8.33,14.83,12.87,16.17C34.52,523,39.59,554.38,50,584a15.28,15.28,0,0,0,12.68,10.13,14.72,14.72,0,0,0,1.76.1,15.24,15.24,0,0,0,6.24-1.33c3.72,13.65,9,26.48,14.09,39,2.85,7,5.56,13.6,8,20.31,3.32,9.2,9.85,11.69,13.85,12.33,1.34,4.49,2.68,9,4,13.4l2.27,7.59c3.4,11.48,6.92,23.36,13.8,34.63l.13.23c4.73,8.17,11.21,10,15.87,10,.8,1.87,1.6,3.75,2.39,5.62q2.41,5.72,4.85,11.36c4.77,11.11,9.56,22.19,14.45,33.49l4.74,11A15.3,15.3,0,0,0,181.28,801a15,15,0,0,0,1.89.12,15.3,15.3,0,0,0,12.13-6c.53-.69,1-1.38,1.46-2.07q4.32,5.36,9,10.53a309.82,309.82,0,0,0,32.53,31.77,15.31,15.31,0,0,0,9.71,3.43,14.65,14.65,0,0,0,3.17-.34,15.3,15.3,0,0,0,6.45-3.07c16.95,15.68,35.39,28.81,53.44,41.68,6,4.27,12.07,8.64,18,13a15.3,15.3,0,0,0,24.21-10.18l.12-.92,36.4,23c3.49,2.19,8.21,4.7,13.85,4.7,4.59,0,12-1.55,16.52-10.43a16.92,16.92,0,0,0,9.59,2.81c7.5,0,12.83-4.79,15.12-6.79a101.05,101.05,0,0,1,9.88-7.74,15.3,15.3,0,0,0,5.9,15.79l2,1.4a15.34,15.34,0,0,0,14.72,1.59c16.61-6.91,31.15-16.6,45.21-25.91,3.9-2.61,7.9-5.23,11.9-7.78l3.57-2.31c2.72-1.75,5.39-3.47,8.07-5.15a18.69,18.69,0,0,0,12.58,5.19c5.7,0,10.7-2.65,14.7-7.89l.06-.08c1.77-2,3.48-4,5.17-6l.5.57a15.31,15.31,0,0,0,21.63.88l44.84-41.09a15.3,15.3,0,0,0,9.94,5.47,16,16,0,0,0,3.09.3,15.43,15.43,0,0,0,12.93-7,12.8,12.8,0,0,0,.66-1.13c8-15.1,19.57-27.89,31.84-41.5,5.1-5.63,10.32-11.4,15.32-17.4a19,19,0,0,0,9,2.25c3.77,0,13-1.25,17.42-13.25v-.1A326.66,326.66,0,0,0,766,693.27a15.31,15.31,0,0,0,3.44.39h.13a15.34,15.34,0,0,0,13-7.38,199.74,199.74,0,0,0,15-30.55c6.82-17.31,11.29-35.09,14.51-53a15.33,15.33,0,0,0,12.33-8.83c10.47-22.72,12.47-44.73,14.47-66l.07-.69a225.39,225.39,0,0,0,.49-25.86,20,20,0,0,0,2.89.22,19.66,19.66,0,0,0,5.6-.82C856.08,498.34,863.22,490.1,859.79,477.75Zm-17.61,8.59s0,0,0,0a0,0,0,0,1,0,0h0a.2.2,0,0,1-.11,0h0l-.25,0a1.79,1.79,0,0,1-.46-.09l-.18,0h0l-.08,0-.07,0-.19-.07a6.26,6.26,0,0,1-1.86-1.15c-.17-.16-.34-.31-.5-.48a12.09,12.09,0,0,1-.88-1l-.47-.63h0c-2-2.87-3.67-6.07-5.85-8.82a6.12,6.12,0,0,0-1.79-1.64,2.25,2.25,0,0,0-.65-.24c-1.16-.25-2.15.7-2.87,3.07a44.29,44.29,0,0,0-1.92,12.57c-.06,12.73.93,25.56-.24,38.19-.24,2.56-.47,5.12-.72,7.68-.07.64-.13,1.29-.19,1.93-.19,1.92-.39,3.85-.62,5.77h0c-.14,1.28-.3,2.56-.46,3.84h0c-.16,1.28-.34,2.56-.52,3.84a175,175,0,0,1-3.32,17.39c-.32,1.28-.65,2.56-1,3.84s-.75,2.59-1.15,3.88-.83,2.57-1.29,3.85c-.23.65-.47,1.29-.7,1.94-1,2.57-2,5.13-3.21,7.7-.19-.66-.37-1.32-.53-2s-.3-1.32-.43-2c-.25-1.33-.45-2.65-.6-4-.68-6.13-.32-12.23-.09-18.3v0c0-.68,0-1.35.07-2v0c0-.68,0-1.36.05-2v0c0-.68,0-1.35,0-2,0-.39,0-.78,0-1.16,0-.7,0-1.39-.05-2.08v-.06c-.07-1.84-.21-3.66-.45-5.49,0-.24-.06-.48-.1-.72-.08-.58-.17-1.15-.28-1.73a39.55,39.55,0,0,0-3-9.48v0c-.33,3.29-.65,6.58-1,9.85v0c-.16,1.63-.32,3.26-.49,4.89v0c-.17,1.63-.33,3.25-.5,4.88-.08.82-.17,1.63-.25,2.45s-.17,1.62-.26,2.43c-.17,1.62-.34,3.24-.52,4.86v0c-.18,1.62-.36,3.23-.55,4.84h0c-.19,1.61-.38,3.22-.58,4.82v0c-.2,1.6-.4,3.2-.61,4.8v0c-.17,1.27-.33,2.56-.52,3.84a1.87,1.87,0,0,1,0,.32h0v.07h0v.06a3.27,3.27,0,0,1-.06.42v0h0v0c-.14,1-.28,2.09-.44,3.13l0,.18-.21,1.46v0c-.22,1.46-.44,2.92-.68,4.38,0,.13,0,.25-.06.37h0q-.76,4.76-1.63,9.48h0c-.29,1.57-.59,3.14-.91,4.71s-.63,3.14-1,4.7c-.26,1.19-.53,2.39-.79,3.58q-1.22,5.34-2.64,10.63a230.39,230.39,0,0,1-8,24.4h0q-1.44,3.68-3,7.27h0c-.31.71-.62,1.42-.95,2.12-.08.19-.17.38-.26.57,0,0,0,0,0,0-.31.69-.64,1.38-1,2.06a1.24,1.24,0,0,1-.1.2.2.2,0,0,1,0,.08l-.16.33-.69,1.43c-.16.32-.32.63-.47.94s-.27.54-.41.81c-.34.71-.7,1.4-1.07,2.1-.22.44-.45.88-.68,1.32s-.46.86-.7,1.29c-.5.93-1,1.85-1.52,2.77-.09.16-.18.31-.26.47-.42.75-.86,1.49-1.3,2.23,0,.08-.09.16-.14.24a1,1,0,0,1-.08.14c-.36.62-.72,1.24-1.09,1.85a17.77,17.77,0,0,1-1.85-3.91c-.08-.22-.14-.43-.21-.65q-.2-.65-.33-1.32a21.55,21.55,0,0,1-.47-4.66q0-.6,0-1.2a0,0,0,0,1,0,0c0-.39,0-.78.07-1.17v0c0-.4.07-.79.11-1.18v0c0-.39.09-.78.14-1.18v0c.11-.79.24-1.59.37-2.38a0,0,0,0,1,0,0c.07-.39.14-.79.2-1.18v0c.29-1.6.58-3.2.82-4.8a0,0,0,0,1,0,0c.08-.5.15-1,.21-1.49v0l.09-.73v0c.1-.92.18-1.85.21-2.76a0,0,0,0,1,0,0,22.21,22.21,0,0,0-.07-2.94s0,0,0-.06a20.58,20.58,0,0,0-.28-2.07,13.07,13.07,0,0,0-.3-1.35,17.89,17.89,0,0,0-2.45-5.4s0,0,0,0c-3.24,12.13-6.09,23.39-9.25,34.56-1.12,4-2.32,8.09-3.59,12.09h0c-.31,1-.64,2-1,3h0c-.33,1-.66,2-1,3-.68,2-1.37,4-2.09,5.95h0c-.43,1.17-.85,2.34-1.29,3.5,0,.15-.11.29-.17.44l-.36,1h0c-.16.43-.32.86-.5,1.29a.25.25,0,0,1,0,.11.14.14,0,0,1,0,.06c-.44,1.15-.89,2.29-1.34,3.43-.55,1.39-1.11,2.77-1.69,4.15a.61.61,0,0,1,0,.12c-.08.2-.17.39-.25.59-.27.66-.55,1.33-.84,2,0,0,0,0,0,0a8.2,8.2,0,0,1-.32.76c-.27.64-.54,1.28-.82,1.92-.16.37-.32.73-.49,1.09s-.17.42-.27.62c-.32.72-.64,1.44-1,2.16,0,.09-.08.19-.13.28-.16.34-.31.68-.46,1-.08.19-.16.37-.25.55l-.88,1.92c-.22.48-.45,1-.68,1.43s-.45,1-.68,1.43c-.44.93-.89,1.87-1.35,2.79-.14.3-.29.59-.44.89s-.39.79-.59,1.18c-.09.2-.19.41-.3.61-.52,1-1,2.08-1.58,3.12a16.62,16.62,0,0,0-.73,1.77l-.18.47a8.21,8.21,0,0,1-.41.9,3.26,3.26,0,0,1-.24.4s0,0,0,0a3.19,3.19,0,0,1-.33.4l-.16.16h0l0,0a.79.79,0,0,1-.15.12,2.4,2.4,0,0,1-.45.25l-.16.07a.55.55,0,0,1-.17,0h0l-.32,0h-.43l-.23,0-.34,0a5.75,5.75,0,0,1-.69-.18l-.18-.08-.18-.08h-.05l-.13-.07a1,1,0,0,1-.17-.1l-.14-.08a3.38,3.38,0,0,1-.46-.37l0,0-.17-.18a4,4,0,0,1-.71-1.13c-.06-.14-.12-.29-.17-.44l-.12-.4a15.71,15.71,0,0,1-.37-3c-.07-1.18-.13-2.36-.15-3.54a5.38,5.38,0,0,0-.25-1.66,3.67,3.67,0,0,0-.8-1.35,2.37,2.37,0,0,0-.39-.32h0a2.25,2.25,0,0,0-.46-.25h0l-.2-.07a1.81,1.81,0,0,0-.58-.1H721l-.19,0h0l-.06,0-.07,0s0,0,0,0h-.06a2.06,2.06,0,0,0-.37.23l-.11.1a1.85,1.85,0,0,0-.28.28,6.42,6.42,0,0,0-.53.7l-.49.72c-18.33,26.7-44.74,47-60.1,76.08a5.74,5.74,0,0,1-1.3-.18,15.67,15.67,0,0,1-.29-2.41c0-.27,0-.53,0-.8s0-.6,0-.88c.48-9.08,8.12-16,8.76-25.44l0,0a.22.22,0,0,0,0-.08l-75.43,69.12v-23.8c-8.56,5-13.75,11.68-19,18.23-3.12,3.87-6.26,7.72-9.55,11.44-1.12,1.27-2.22,3.63-4.52,2.14a4.39,4.39,0,0,1-1.67-4.38,2.65,2.65,0,0,1,.07-.48c0-.07,0-.15,0-.22.12-.61.26-1.22.42-1.84a.11.11,0,0,0,0-.05l.19-.7c.47-1.66,1.05-3.46,1.68-5.68h0s0,0,0-.07c-11.88,5.43-21.78,12.12-31.84,18.56-17.88,11.44-35,24.18-54.76,32.46l-1.38-.92c-.13-.08-.25-.17-.37-.26,5.29-12,10.58-24,16.71-37.82l-.06,0,0,0c-19.41,9.26-37,17.58-51.68,30.72a27.09,27.09,0,0,1-2.4,1.92h0c-.24.16-.46.3-.68.42a5.66,5.66,0,0,1-1.15.48,2.41,2.41,0,0,1-.35.07c-1.82.24-3-1.46-4.23-5.35-.52-1.56-.68-3.24-1.07-4.83-.5-2-.9-4.08-2.11-5.44a3.5,3.5,0,0,0-.27-.28,2.55,2.55,0,0,0-.3-.26h0a3.09,3.09,0,0,0-.37-.26h0a3.23,3.23,0,0,0-.41-.22h0a2.92,2.92,0,0,0-.49-.19,5.66,5.66,0,0,0-1.32-.23H419c-4.4,0-7.76,2.36-8.92,6.73-1,3.64-1.18,7.48-2,11.17-.92,4.39-2.06,6.55-4.09,6.8a3.23,3.23,0,0,1-.93,0,14.18,14.18,0,0,1-5.15-2.32l-71.46-45.07v0l-.06,0C326.1,857,340,864,338.07,877.72c-33.4-24.57-68.36-46.2-94.51-80v0l0,0c-3,10,9.34,15.89,4.47,25.73q-8.25-6.94-16-14.48l0,0c-1-.94-1.92-1.88-2.87-2.85l-2.84-2.88c-1.87-1.94-3.73-3.9-5.56-5.89h0c-1.21-1.33-2.42-2.66-3.61-4q-6.42-7.1-12.25-14.7a234,234,0,0,1-13.9-20.3,14,14,0,0,0-1.67,1.94c-.19.25-.35.51-.51.77s-.31.55-.45.83-.25.52-.36.78a15.39,15.39,0,0,0-1,3.76,49.53,49.53,0,0,0-.39,5.18l0,.83s0,0,0,.06c0,.43,0,.85,0,1.28,0,.86-.06,1.72-.12,2.59h0c0,.43-.07.87-.12,1.3l0,.22c0,.2,0,.4-.08.6s-.06.39-.1.59h0l0,.15c-.05.27-.1.55-.17.82l-.06.22c0,.2-.1.4-.16.6s-.12.4-.19.6c-.13.4-.29.8-.46,1.2h0a12.64,12.64,0,0,1-.66,1.33h0a9,9,0,0,1-.54.88c-.2.3-.41.59-.63.89q-4.6-10.65-9.07-21c-1-2.31-2-4.62-3-6.92q-3.57-8.28-7.13-16.52-1.63-3.81-3.26-7.64c-3.11-7.32-6.2-14.64-9.4-21.91-.15-.33-.29-.67-.44-1a3.71,3.71,0,0,1-.15-.4l-.06-.16c-.1-.29-.19-.6-.29-.92,0-.15-.09-.29-.15-.44s-.09-.25-.14-.37l0,0-.09-.21a.47.47,0,0,0-.05-.1,3.46,3.46,0,0,0-.29-.45,0,0,0,0,0,0,0,.71.71,0,0,0-.12-.13h0l-.07-.07-.08-.06,0,0,0,0-.09-.05-.22-.13-.07,0-.08,0-.26-.08,0,0h0a2,2,0,0,0-.35,0,2.87,2.87,0,0,0-.62.07,2.14,2.14,0,0,0-.54.18l-.14.07-.19.13a2.11,2.11,0,0,0-.23.19.52.52,0,0,0-.16.17,1.85,1.85,0,0,0-.19.27s0,0,0,0h0a1,1,0,0,0-.11.21.54.54,0,0,0,0,.11.36.36,0,0,1,0,.09l-.09.26c0,.12-.07.24-.09.37a6.19,6.19,0,0,0,0,2v0a7.15,7.15,0,0,1,0,1.45.13.13,0,0,1,0,.06l0,.21a3.46,3.46,0,0,1-.18.67,1.89,1.89,0,0,1-.28.5h0a.49.49,0,0,1-.11.14s0,0,0,0a3.45,3.45,0,0,1-.28.26,1.32,1.32,0,0,1-.25.16,2.94,2.94,0,0,1-1,.38,2.51,2.51,0,0,1-1.19,0h0a.58.58,0,0,1-.21-.07h0l-.15-.07-.15-.08-.28-.19h0l-.06-.05-.19-.18a3.39,3.39,0,0,1-.31-.34s0,0,0,0l0,0,0,0,0,0-.18-.25-.07-.11-.15-.23-.44-.73c0-.08-.09-.16-.14-.24h0q-1.17-1.92-2.2-3.88c-.26-.49-.51-1-.76-1.48-.49-1-1-2-1.42-3-.22-.5-.45-1-.67-1.52a190,190,0,0,1-7.11-20.92c-.2-.71-.41-1.41-.62-2.11-.38-1.27-.75-2.54-1.13-3.8q-1.12-3.81-2.26-7.61c-1-3.34-2-6.68-3-10q-.79-2.64-1.63-5.27c-.38-1.25-.77-2.49-1.17-3.74l-.12-.35c0-.13-.07-.26-.11-.39s0,0,0,0c-.05-.2-.11-.4-.17-.61,0,0,0-.06,0-.09h0l-.15-.54-.21-.61a1.8,1.8,0,0,0-.08-.21,1.17,1.17,0,0,1-.05-.11c0-.05,0-.11-.07-.17s-.12-.27-.19-.4v0l-.16-.3c-.06-.1-.13-.19-.19-.28h0s0,0,0,0l-.16-.21-.09-.09a.38.38,0,0,0-.09-.09,1.57,1.57,0,0,0-.19-.18.66.66,0,0,0-.17-.12.1.1,0,0,1,0,0l-.22-.14h0l0,0a1.23,1.23,0,0,0-.26-.12,1.93,1.93,0,0,0-.34-.11,2.47,2.47,0,0,0-.63-.08l-.24,0-.16,0,0,0-.11,0a.35.35,0,0,0-.14.06.42.42,0,0,0-.14.09h0a1.54,1.54,0,0,0-.44.44h0l-.12.18s0,0,0,0l-.18.34h0q-.08.16-.15.36h0c0,.13-.1.26-.14.38v0c0,.07,0,.13-.07.19s-.07.2-.1.3-.07.2-.1.3,0,0,0,0-.08.19-.11.28-.12.27-.19.4a2.22,2.22,0,0,1-.21.37,7.58,7.58,0,0,1-1.17,1.39,2.42,2.42,0,0,1-.28.22,2,2,0,0,1-.23.14l-.16.07-.06,0-.14,0a.86.86,0,0,1-.39,0h-.22l-.11,0h-.07a.65.65,0,0,1-.2-.15,1.93,1.93,0,0,1-.24-.25l-.13-.18a3.54,3.54,0,0,1-.23-.35,8.06,8.06,0,0,1-.59-1.35q-.9-2.47-1.84-4.93c-2.62-6.86-5.45-13.64-8.22-20.45-2-4.9-4-9.81-5.79-14.76-.51-1.38-1-2.76-1.5-4.15s-1-2.78-1.43-4.17a156.27,156.27,0,0,1-5.89-23c-.5-2.88-.93-5.78-1.27-8.68q-.35-2.91-.58-5.82c-.23-2.91-.39-5.84-.47-8.76a5.07,5.07,0,0,0,0-.55l0-.56c0-.37-.06-.73-.11-1.08,0-.12,0-.24,0-.35l-.12-.61a6.05,6.05,0,0,0-1.42-2.94,1.15,1.15,0,0,0-.22-.22,3.38,3.38,0,0,0-.77-.58h0a6.5,6.5,0,0,0-3.47-.81h-.37l-.34,0a5.76,5.76,0,0,0-1.29.22,3.74,3.74,0,0,0-.9.36.38.38,0,0,0-.13.09l-.09,0a.26.26,0,0,0-.11.07l0,0,0,0a1.92,1.92,0,0,0-.34.3l0,.06-.19.2h0c0,.07-.1.15-.16.22h0a3.84,3.84,0,0,0-.27.49h0a2,2,0,0,0-.11.26,5.54,5.54,0,0,0-.32,1.32c-.19,1.18-.16,2.51-.24,3.78-.39,8.6,1.28,17.54-4.51,26.68-13.29-37.85-16.13-76-14.19-114.7a6.85,6.85,0,0,0-2,.09,5,5,0,0,0-1,.3l-.47.22c-.21.11-.4.24-.59.36l-.47.37A20.7,20.7,0,0,0,43,468.74c-.92,1.2-1.77,3-3.14,3.41l-.26.06a2.16,2.16,0,0,1-.67,0c-2.47-.41-2.1-3.34-2.61-5.15-6.51-23.25-4.73-46.34,1.85-69.25,2.13-7.41,4.72-14.68,7.69-23.86l0,0v0c-6,4.37-10.53,9.7-15.2,14.87,0,0,0,0,0,0-.51.57-1,1.14-1.57,1.7h0l-.79.84s0,0,0,0c-.26.28-.52.55-.8.83,0,0,0,0,0,0l-.81.83c-1.36,1.38-2.77,2.73-4.27,4-.6.51-1.21,1-1.84,1.5s-1.27,1-1.93,1.44c-.38.27-.76.53-1.15.78l-1.11.72c-.38.23-.76.46-1.15.68,12.86-39.85,30.53-74.84,61-102.51h0A39.5,39.5,0,0,0,60,305.93l-1,.62h0c-.79.52-1.57,1-2.33,1.58-.39.27-.78.54-1.16.82h0c-1.15.83-2.3,1.66-3.44,2.5q-5.13,3.78-10.19,7.67c-4.51,3.45-9,6.93-13.51,10.37h0c-.37.28-.71.59-1.06.91-.52.47-1,1-1.61,1.39a7.21,7.21,0,0,1-.76.51,5,5,0,0,1-.61.31,5.19,5.19,0,0,1-.62.23l-.41.11a3.5,3.5,0,0,1-.45.07,2.93,2.93,0,0,1-2.38-.74c-1.46-1.34.12-3,.77-4.42.46-1,.93-2,1.41-3.05q.83-1.75,1.68-3.51l0,0,0,0c.5-1,1-2,1.52-3.06l.87-1.68c.13-.27.27-.53.41-.79.05-.09.09-.19.14-.28.46-.88.92-1.75,1.4-2.62.38-.7.76-1.4,1.15-2.1a1.91,1.91,0,0,1,.15-.28l.3-.56c.11-.21.22-.41.34-.61l.19-.32c.23-.42.47-.83.71-1.25l.42-.74c.12-.2.23-.4.35-.59l.63-1.09c.23-.41.47-.82.72-1.22h0q1.37-2.31,2.79-4.58l.74-1.17.7-1.11h0c.13-.22.27-.43.41-.64l.34-.53.13-.2.58-.88h0l1.49-2.24,1.52-2.22q4.1-5.91,8.52-11.58,3.18-4.09,6.48-8,3.11-3.71,6.33-7.28,2-2.25,4.08-4.46c.8-.86,1.6-1.71,2.41-2.55h0L72.59,254h0l2.47-2.49c1.65-1.66,3.32-3.29,5-4.92q3.17-3,6.41-6c2.16-2,4.35-3.91,6.56-5.85l3.34-2.87q3.34-2.87,6.76-5.64l3.43-2.77,0,0,2.75-2.17.62-.51c.62-.49,1.23-1,1.84-1.51h0c.73-.62,1.44-1.24,2.15-1.87l.23-.2,0,0a.22.22,0,0,0,0-.08.3.3,0,0,0,0-.1.32.32,0,0,0,0-.14c0-.24,0-.58,0-1,0-.16,0-.33,0-.51C95.73,213.67,83,228.86,64.74,233.28l2.5-3.74c2-3,4-6.1,6-9.14l3.91-6c11.12-16.92,22.31-33.38,36.07-47.17.5-.51,1-1,1.53-1.52l0,0q1.55-1.5,3.13-3c1.07-1,2.15-2,3.26-2.9s2.2-1.86,3.33-2.76,2.27-1.8,3.43-2.66l0,0c1.75-1.3,3.53-2.55,5.36-3.77.61-.41,1.24-.82,1.87-1.22,1.09-.69,2.19-1.37,3.31-2s2.26-1.3,3.42-1.93c.87-.47,1.74-.93,2.63-1.38q2.33-1.18,4.74-2.28a116.39,116.39,0,0,1,15.42-5.66h0c-13-11.21-26.56,3-38.9-4.29,27.35-24.72,63.71-26.49,96.1-38.36v0h0a14.3,14.3,0,0,0-.82-2.12,4,4,0,0,0-.29-.43l-.34-.42a3.58,3.58,0,0,0-.26-.29c-.42-.48-.9-1-1.28-1.44l-.25-.33-.22-.33a.93.93,0,0,0-.05-.1l0,0a1.86,1.86,0,0,0-.1-.2.17.17,0,0,1,0,0c0-.11-.08-.21-.11-.32a1.59,1.59,0,0,1-.06-.3,2.15,2.15,0,0,1,0-.62c0-.08,0-.17.05-.26h0c0-.08,0-.17.08-.25a4.07,4.07,0,0,1,.27-.56c1.42-2.39,4.24-2.58,7-2.28,16.29,1.77,32.6,1,48.89-.24q13.56-.94,27-3c1.5-.23,3-.47,4.51-.72s3-.49,4.43-.76h0c-6.63-16.16-25.81-17.82-34.82-32.3l1.7.11h.32l.15,0h.3l.32,0,.57,0,1.24.09.87.07.39,0h.1l.39,0H282c.12,0,.23,0,.34,0h.07l.76.07h.15l.37,0h.41l.29,0,1.1.11h.13l.68.07.51.05.44,0,1.89.22,1.94.24c1.7.22,3.39.46,5.08.72l2.92.46c1.92.31,3.82.65,5.72,1l2.86.56,3.17.65.16,0,1.36.29,2.78.61,1.19.28.59.13.07,0h0a0,0,0,0,1,0,0h.1a4.54,4.54,0,0,1,.53.12l.33.08a4.54,4.54,0,0,1,.53.12h0l.28.06.14,0q.38.07.75.18l2,.48,1.84.46.87.22.41.11,2.29.59.41.1,1,.26,2.93.78,1.33.36a1.45,1.45,0,0,1,.26.07l.18,0s0,0,0,0l.29.08,4.81,1.34,1.22.34,3.55,1c.42.11.84.23,1.25.36a.27.27,0,0,1,.12,0h0l.08,0c7.27,2.11,14.52,4.28,21.8,6.38v0h.05c-1.84-5.75-3.87-8.22-10.39-12.57-3.14-2.08-6.49-3.91-9.53-6.14-1.51-1.12-4.52-1.95-3.45-4.46a3.47,3.47,0,0,1,.67-1,2.44,2.44,0,0,1,.29-.27,4.73,4.73,0,0,1,.43-.31,6.31,6.31,0,0,1,2.45-.84,18,18,0,0,1,1.8-.17h.52a6.72,6.72,0,0,1,1.64.16,6.21,6.21,0,0,1,.74.2h0l.71.27.52.24.09.05.09,0h0c.21.11.43.23.64.36s.64.4.95.62c.54.37,1.07.76,1.6,1.14,2.53,1.84,5.53,2.7,8.06,1.84a5.74,5.74,0,0,0,1.86-1,3.29,3.29,0,0,0,.95-3.91,3.43,3.43,0,0,0-.13-.38h0a9.25,9.25,0,0,0-.51-1.12h0c-.5-1-1.13-2-1.59-2.87-2.2-4.17-4.49-8.28-3.82-13,0-.28.09-.56.15-.85A14.22,14.22,0,0,1,363,17.44c5.61,5,8.85,11.34,13,16.93l.53.71c.17.24.35.47.54.71l.53.72a1.84,1.84,0,0,0,.17.22L378,37c.42.56.85,1.11,1.28,1.66s.74.91,1.12,1.36A39.38,39.38,0,0,0,383.23,43c.67.65,1.36,1.27,2.08,1.85l.55.43c.37.28.75.55,1.14.82A22.74,22.74,0,0,0,392.83,49c6.69,2.14,12.16,2,16.3-.41a12,12,0,0,0,1.15-.76,12.84,12.84,0,0,0,1.1-.88l.51-.49a14.12,14.12,0,0,0,1.43-1.64,19.42,19.42,0,0,0,2.34-4.12l.36-.89c.06-.16.12-.31.17-.47.13-.36.26-.73.38-1.11s.18-.58.26-.88h0c.26-.89.48-1.83.67-2.82.08-.4.14-.8.19-1.21,0-.21.06-.42.08-.63.05-.4.09-.81.13-1.22a16.48,16.48,0,0,1,.89-4.28,8.46,8.46,0,0,1,.89-1.71l.41-.54a5.79,5.79,0,0,1,1.55,1.13,8.27,8.27,0,0,1,.61.7c.49.64.92,1.34,1.36,2,.13.22.28.45.42.67a11.86,11.86,0,0,0,.9,1.21q.76.88,1.53,1.65c.51.51,1,1,1.52,1.42h0c.5.43,1,.84,1.51,1.2h0c.51.36,1,.69,1.52,1a0,0,0,0,0,0,0,14.46,14.46,0,0,0,1.52.77l.77.3c.21.08.43.15.64.21l.08,0h.05a10.4,10.4,0,0,0,1.45.31h.09a10.69,10.69,0,0,0,1.79.1h.37a2.31,2.31,0,0,0,.37,0l.25,0,.25,0,.37-.05.13,0h0l.25,0,.25,0,.5-.13.12,0,.38-.12.25-.07.14,0c.38-.13.75-.28,1.13-.44h0c.33-.15.67-.31,1-.49.17-.08.34-.18.52-.28l.77-.46q.39-.24.78-.51c.26-.17.51-.35.77-.55l.77-.59.65-.54.11-.09h0l.18-.15c.2-.17.4-.34.59-.52v0h0l.76-.71s0,0,0,0c.23-.21.44-.43.64-.65s.39-.42.58-.64c.38-.43.75-.87,1.12-1.32,0,0,0,0,0,0l.55-.66s0,0,0,0c.27-.34.55-.68.83-1a4.12,4.12,0,0,1,.28-.31,20.5,20.5,0,0,1,2.25-2.31c.16-.14.33-.27.5-.4s.22-.18.34-.26l.45-.31.44-.27.36-.2a9.53,9.53,0,0,1,1.34-.59l.31-.1a10.34,10.34,0,0,1,1.19-.3c3.1-.57,6.76-1,8.85,1.16a3,3,0,0,1,.48.63l.1.22c0,.09.06.17.08.25a1.05,1.05,0,0,1,.06.24,3,3,0,0,1,0,1.12,5.2,5.2,0,0,1-.27.88c-.06.15-.12.29-.19.44h0l-.22.44c-.12.25-.26.49-.4.73s-.41.71-.61,1.06a11.42,11.42,0,0,0-.69,1.34c-.25.57-.51,1.14-.78,1.7h0c-.27.56-.55,1.11-.85,1.66h0c-.29.54-.59,1.09-.9,1.63h0c-.31.54-.63,1.07-1,1.61h0c-.32.53-.66,1.07-1,1.6h0c-.34.53-.68,1.06-1,1.6h0l-1.09,1.6h0l-1.12,1.62s0,0,0,0l-1.83,2.63L456,49.31c-.63.92-1.26,1.87-1.9,2.84h0c2.48-.79,4.95-1.59,7.39-2.41s4.86-1.66,7.25-2.52c13.59-4.9,26.44-10.6,38.29-18.15,1.4-.89,2.78-1.8,4.15-2.75.68-.47,1.36-.94,2-1.43,2-1.46,4-3,6-4.56.66-.53,1.31-1.06,2-1.61,1.13-1,2.26-1.94,3.37-2.95l.46-.41c1.12,4.84,1.45,6.25-5.43,16q-.28.39-.57.81c-.11.14-.21.29-.32.44l-.62.86c-.41.57-.84,1.15-1.29,1.76l-1.41,1.92-1.54,2.08-1.68,2.24h0l-1.2,1.6-4,5.32h0l5,.48h0l3.32.27h0c1.1.07,2.19.13,3.27.16a39.25,39.25,0,0,0,10.88-1C546,44,562.22,45,578.68,47.59c2.53.39,5.07.7,7.62,1l5.82.64c1.27.14,2.54.29,3.81.46s2.54.34,3.8.55c.9.15,1.8.31,2.69.48a79.43,79.43,0,0,1,10.45,2.85c.85.3,1.7.6,2.55.93h0c.84.32,1.69.66,2.53,1s1.69.71,2.54,1.09q2.52,1.14,5,2.4c1.69.85,3.37,1.74,5.06,2.68q1.27.71,2.55,1.44c2.55,1.48,5.11,3,7.72,4.68q-3.3.36-6.55.58c-15.91,1.09-31,.1-46,.68-2.88.11-5.76.28-8.63.54-1,.08-2,.18-3,.29Q588.07,71,599.1,72.76c1.63.26,3.26.54,4.88.83l2.43.45c1.62.3,3.23.62,4.84.95s3.21.67,4.8,1,2.89.65,4.32,1c.31.07.62.14.92.23q11.65,2.84,22.9,6.72l2.3.82c1.52.54,3,1.11,4.55,1.69q3.4,1.3,6.77,2.73c1.49.62,3,1.27,4.45,1.93q4.46,2,8.82,4.2c1.2.61,2.41,1.23,3.6,1.86a206.81,206.81,0,0,1,26,16.33q2,1.5,4.05,3.08c1.34,1,2.68,2.11,4,3.2,1,.81,2,1.64,3,2.48s2,1.69,3,2.56c0,0,0,0,0,0,2,1.74,3.9,3.51,5.82,5.33l-.94-.1q-.58-.06-1.17-.15l-1.27-.2c-.37-.06-.73-.14-1.1-.21-.66-.13-1.32-.27-2-.43l-.89-.22c-.47-.12-.95-.25-1.41-.39-.94-.26-1.86-.55-2.77-.86-10.93-3.67-20.39-9.77-31.46-10.38h0c.15.2.32.41.53.65s.43.48.69.75l.37.39s0,0,0,0h0c.07.07.14.15.22.22l.21.22,1,1h0l.71.67c.25.24.51.47.78.71s.59.54.9.8c.59.53,1.21,1.07,1.88,1.65,3,2.58,6.75,5.64,11,9l1.08.85c.73.57,1.48,1.15,2.23,1.75l1.15.89,1.58,1.22,3.23,2.48,3.35,2.55,3.47,2.61,3.56,2.66,1.82,1.35,3.69,2.72,3.76,2.75,3.82,2.77,1.92,1.39,0,0,3.87,2.78h0l3.88,2.77h0q3.9,2.76,7.81,5.49l2,1.38c3.24,2.26,6.46,4.47,9.63,6.62,3.81,2.59,7.55,5.09,11.14,7.45l1.78,1.17h0l.87.57.87.57h0l.85.56.86.56h0l.84.55.84.54-1.42.22c-.48.07-1,.12-1.44.17l-1,.09c-2.61.22-5.24.28-8,.48l-1.19.1c-.82.07-1.66.16-2.52.28l-1.05.15-.5.09-1.25.24c-.77.15-1.54.33-2.34.55-.52.13-1.05.28-1.58.45l-.81.27h0A221.55,221.55,0,0,1,773.74,205h0q6.59,4.17,12.64,8.76,4.54,3.47,8.77,7.2c1.87,1.67,3.7,3.37,5.47,5.12q4,3.93,7.66,8.19h0q3.66,4.26,7,8.85,1.65,2.31,3.21,4.69h0c.69,1.06,1.37,2.13,2,3.22s1.31,2.19,2,3.31h0c.64,1.11,1.26,2.25,1.87,3.39.31.57.61,1.15.91,1.73.6,1.16,1.18,2.33,1.74,3.52a141.19,141.19,0,0,1,6.14,15c.22.65.45,1.31.66,2s.44,1.33.65,2a44.65,44.65,0,0,1-7.47-5.9l-1-1c-2.22-2.26-4.24-4.67-6.21-7.11l-3.36-4.19c-1.13-1.39-2.26-2.77-3.43-4.12-.51-.58-1-1.16-1.55-1.73l-1-1.08-.55-.56a47.49,47.49,0,0,0-4.59-4.11q-1.23-1-2.55-1.83c-.61-.4-1.23-.79-1.87-1.14s-1.55-.86-2.36-1.26h0c.51,1,1,2.08,1.57,3.11,13.39,26,32.63,48.18,40.82,75.85.38,1.25.73,2.52,1.05,3.79q.1.4.21.84.32,1.31.6,2.61l.42,2.08.21,1.11c.07.4.14.8.2,1.2.11.68.22,1.36.32,2q.09.56.15,1.11c0,.11,0,.22,0,.33a.11.11,0,0,1,0,.08.78.78,0,0,1,0,.22c0,.11,0,.22,0,.33h0a1.5,1.5,0,0,1,0,.22c0,.21.06.42.07.64a.11.11,0,0,1,0,.08.28.28,0,0,1,0,.09l0,.31a1.73,1.73,0,0,1,0,.32c0,.24,0,.47.07.7l0,.25c0,.53.09,1.06.13,1.59-.27-.28-.54-.55-.8-.83a29.6,29.6,0,0,1-2.08-2.53,41.59,41.59,0,0,1-2.29-3.48c-.69-1.14-1.33-2.29-2-3.41-.47-.85-.94-1.69-1.45-2.51-.16-.29-.33-.57-.51-.85-2.9-4.59-5.56-9.36-8.85-13.66-.31-.43-.62-.85-1-1.26l-.06-.06h0c-.17-.21-.35-.43-.54-.64l-.56-.63v0c-.19-.21-.38-.41-.58-.61s-.39-.39-.59-.58h0a3.83,3.83,0,0,0-.29-.28l-.32-.29c-.2-.19-.41-.37-.62-.54s-.58-.48-.88-.71c-.59-.45-1.19-.87-1.81-1.27h0c-.51-.33-1-.64-1.58-.92a25.19,25.19,0,0,0-5.55-2.27c3.74,7.53,7.28,14.76,10.77,21.82,2.61,5.3,5.19,10.5,7.81,15.65q1.3,2.58,2.63,5.15,1.21,2.37,2.34,4.76c.3.63.58,1.27.86,1.91q1,2.4,2,4.84c.42,1.14.82,2.28,1.18,3.43s.7,2.31,1,3.48h0c.18.67.33,1.34.48,2l.24,1.14c.07.34.13.68.19,1a.59.59,0,0,0,0,.14l.15.87c0,.1,0,.19,0,.29.14.92.26,1.84.36,2.78,0,.24,0,.49.07.74l0,.29c.06.69.1,1.39.13,2.09h0a53.25,53.25,0,0,1-1.82,16l-.44-.61-.67-1c-.31-.46-.61-.94-.9-1.41l-.45-.74c-.35-.59-.69-1.19-1-1.79l-.18-.33c-1.9-3.54-3.43-7.22-5-10.84-.45-1.08-.91-2.15-1.39-3.2h0c-.16-.37-.33-.74-.5-1.11l-.48-1c-.65-1.37-1.33-2.72-2.07-4h0c-.51-.91-1-1.8-1.6-2.67a33.24,33.24,0,0,0-6.21-7.22v0l0,0q1.81,7.75,3.59,15.52v0q1.79,7.76,3.63,15.49l1.08,4.42,1.53,6.14c.68,2.73,1.37,5.45,2.05,8.18l.51,2,1,4.09c.25,1,.49,2,.73,3,.08.29.15.58.21.88.69,2.81,1.37,5.63,2,8.45.33,1.37.64,2.74.95,4.11q.76,3.35,1.47,6.69c.27,1.24.53,2.49.78,3.74.07.27.12.55.17.82.15.72.29,1.43.43,2.15q.29,1.41.54,2.82c.06.3.12.6.17.9,1,5.13,1.8,10.28,2.48,15.46q.1.69.18,1.38a1.24,1.24,0,0,1,0,.27c.09.61.17,1.21.23,1.82a4.43,4.43,0,0,1,.06.51c0,.36.09.72.13,1.08.15,1.3.29,2.6.41,3.9s.26,2.81.37,4.22c.15,1.92,2.32,5-1.11,6.06l-.31.08a1,1,0,0,1-.17,0l-.44.06h0l-.39,0ZM108.77,649.43h0l0,0h0Zm169-603.27h-.22l.23,0h0Zm.45,0h-.32a0,0,0,0,0,0,0H278l.32,0,.57,0Zm2.93.22c-.32,0-.63-.06-.94-.07l.87.07.39,0Zm1.94.16-.67,0,.76.07h-.09Zm.31,0h-.07l.22,0Zm2.05.2h-.25l-.3,0c-.17,0-.35,0-.52-.06l-.29,0h0l.29,0,1.1.11h.13l.68.07.51.05C286.32,46.89,285.87,46.84,285.41,46.8ZM284,46.67h0Zm-.15,0h0Zm-.29,0h0Zm394,70.62c.15.2.32.41.53.65C677.86,117.66,677.68,117.44,677.53,117.24Zm93.05,559.19a1,1,0,0,1-.08.14c-.36.62-.72,1.24-1.09,1.85.51-.84,1-1.69,1.51-2.54.06-.12.13-.23.19-.34C770.93,675.84,770.75,676.13,770.58,676.43Zm-661.81-27h0l0,0h0Zm169-603.27h-.22l.23,0h0Zm.45,0h-.32a0,0,0,0,0,0,0H278l.32,0,.57,0Zm2.93.22c-.32,0-.63-.06-.94-.07l.87.07.39,0Zm1.94.16-.67,0,.76.07h-.09Zm.31,0h-.07l.22,0Zm2.05.2h-.25l-.3,0c-.17,0-.35,0-.52-.06l-.29,0h0l.29,0,1.1.11h.13l.68.07.51.05C286.32,46.89,285.87,46.84,285.41,46.8Zm-1.57-.15h0Zm-.25,0h0Zm393.94,70.62c.15.2.32.41.53.65C677.86,117.66,677.68,117.44,677.53,117.24Zm93.05,559.19a1,1,0,0,1-.08.14c-.36.62-.72,1.24-1.09,1.85.51-.84,1-1.69,1.51-2.54.06-.12.13-.23.19-.34C770.93,675.84,770.75,676.13,770.58,676.43Zm-661.81-27h0l0,0h0Zm169-603.27h-.22l.23,0h0Zm.45,0H278l.32,0,.57,0Zm2.93.22c-.32,0-.63-.06-.94-.07l.87.07.39,0Zm1.94.16-.67,0,.76.07Zm.49,0h0Zm1.87.18h-.25l-.3,0c-.17,0-.35,0-.52-.06l-.29,0h0l.29,0,1.1.11h.13l.68.07.51.05C286.32,46.89,285.87,46.84,285.41,46.8Zm-1.59-.16h-.19l.2,0Zm393.71,70.6c.15.2.32.41.53.65C677.86,117.66,677.68,117.44,677.53,117.24Zm93.05,559.19a1,1,0,0,1-.08.14c-.36.62-.72,1.24-1.09,1.85.51-.84,1-1.69,1.51-2.54.06-.12.13-.23.19-.34C770.93,675.84,770.75,676.13,770.58,676.43Zm-661.81-27h0l0,0h0Zm169-603.27h-.22l.23,0h0Zm.45,0H278l.32,0,.57,0Zm2.93.22c-.32,0-.63-.06-.94-.07l.87.07.39,0Zm2.48.21h0Zm.23,0h-.19l.2,0Zm-.77-.07-.67,0,.76.07Zm2.36.23h-.25l-.3,0c-.17,0-.35,0-.52-.06l-.29,0h0l.29,0,1.1.11h.13l.68.07.51.05C286.32,46.89,285.87,46.84,285.41,46.8Zm392.12,70.44c.15.2.32.41.53.65C677.86,117.66,677.68,117.44,677.53,117.24Zm93.05,559.19a1,1,0,0,1-.08.14c-.36.62-.72,1.24-1.09,1.85.51-.84,1-1.69,1.51-2.54.06-.12.13-.23.19-.34C770.93,675.84,770.75,676.13,770.58,676.43Zm-661.81-27h0l0,0h0Zm169-603.27h-.22l.23,0h0Zm.45,0H278l.32,0,.57,0Zm2.93.22c-.32,0-.63-.06-.94-.07l.87.07.39,0Zm2.48.21h0Zm1.82.18h-.25l-.3,0c-.17,0-.35,0-.52-.06l-.52,0h-.19l.2,0h.24l.29,0,1.1.11h.13l.68.07.51.05C286.32,46.89,285.87,46.84,285.41,46.8Zm-2.36-.23-.67,0,.76.07Zm394.48,70.67c.15.2.32.41.53.65C677.86,117.66,677.68,117.44,677.53,117.24Zm93.05,559.19a1,1,0,0,1-.08.14c-.36.62-.72,1.24-1.09,1.85.51-.84,1-1.69,1.51-2.54.06-.12.13-.23.19-.34C770.93,675.84,770.75,676.13,770.58,676.43Zm-661.81-27h0l0,0h0Zm169-603.27h-.22l.23,0h0Zm.45,0H278l.32,0,.57,0Zm2.93.22c-.32,0-.63-.06-.94-.07l.87.07.39,0Zm2.48.21h0Zm.23,0h-.19l.2,0Zm-.77-.07-.67,0,.76.07Zm2.36.23h-.25l-.3,0-.5,0,1.1.11h.13l.68.07.51.05C286.32,46.89,285.87,46.84,285.41,46.8Zm392.12,70.44c.15.2.32.41.53.65C677.86,117.66,677.68,117.44,677.53,117.24Zm93.05,559.19a1,1,0,0,1-.08.14c-.36.62-.72,1.24-1.09,1.85.51-.84,1-1.69,1.51-2.54.06-.12.13-.23.19-.34C770.93,675.84,770.75,676.13,770.58,676.43Zm-661.81-27h0ZM278.18,46.19H278l.32,0,.57,0Zm-.45,0h-.22l.23,0h0Zm7.68.64h-.16l.21,0h.13l.68.07.51.05C286.32,46.89,285.87,46.84,285.41,46.8Zm-1.82-.18h0Zm.23,0h-.19l.2,0Zm-.77-.07-.67,0,.76.07Zm-1.94-.16c-.32,0-.63-.06-.94-.07l.87.07.39,0Zm396.42,70.83c.15.2.32.41.53.65C677.86,117.66,677.68,117.44,677.53,117.24Zm93.05,559.19a1,1,0,0,1-.08.14c-.36.62-.72,1.24-1.09,1.85.51-.84,1-1.69,1.51-2.54.06-.12.13-.23.19-.34C770.93,675.84,770.75,676.13,770.58,676.43ZM278.18,46.19H278l.32,0,.57,0Zm5.41.43h0Zm.23,0h-.19l.2,0Zm-.77-.07-.67,0,.76.07Zm-1.94-.16c-.32,0-.63-.06-.94-.07l.87.07.39,0Zm4.3.39h-.16l.21,0h.13l.68.07.51.05C286.32,46.89,285.87,46.84,285.41,46.8Zm392.12,70.44c.15.2.32.41.53.65C677.86,117.66,677.68,117.44,677.53,117.24Zm93.05,559.19a1,1,0,0,1-.08.14c-.36.62-.72,1.24-1.09,1.85.51-.84,1-1.69,1.51-2.54.06-.12.13-.23.19-.34C770.93,675.84,770.75,676.13,770.58,676.43ZM278,46.18h0Zm5.62.44h0Zm.23,0h-.19l.2,0Zm-.77-.07-.67,0,.76.07Zm-1.94-.16H281l.39,0Zm396.42,70.83c.15.2.32.41.53.65C677.86,117.66,677.68,117.44,677.53,117.24Zm93.05,559.19c.12-.18.23-.36.34-.55s.13-.23.19-.34C770.93,675.84,770.75,676.13,770.58,676.43ZM677.53,117.24c.15.2.32.41.53.65C677.86,117.66,677.68,117.44,677.53,117.24Z"/><path class="cls-1" d="M358.14,536.24c37,.11,71.37-3.9,105.89-5,17.29-.56,34,1,51,3,10.68,1.25,21.61.66,32.42.37,6.38-.18,12.16,1.59,17.79,4,8.46,3.55,10.42,15.1,4.33,22.19C560,572,547.57,579.11,534.18,584c-26.2,9.55-52.71,18.33-79.37,26.55-18.24,5.63-36.72,3.62-53.77-4.5-17.81-8.49-37-13.14-54.85-21.16-9.43-4.23-19.58-6.19-28.82-10.74-6.72-3.31-10.22-9.11-11.87-16-1.81-7.58,1.27-11.58,8.35-14.77C328.81,536.56,344.49,535.29,358.14,536.24Z"/><path class="cls-1" d="M666.42,450.35c-.08-.58-.16-1.17-.25-1.76,0-.32-.1-.63-.16-.95l-.15-.8c-1.52-7.87-3.27-15.72-5.35-23.47C641.23,351.64,606.59,287.12,566.89,225c-10.42-16.3-17-16.15-31.21-.7q-8.7,9.45-17.37,18.93-14.43,15.84-28.68,31.87h0Q485.28,280,481,285c-.47.52-.93,1-1.38,1.57q-3.53,4-7,8l-.87,1-.73.85q-4.62,5.34-9.21,10.72L456.86,313c-1.64,1.94-3.27,3.89-4.91,5.84q-9.78,11.7-19.35,23.6c-1.72,2.14-3,3.21-4.07,3.42l-.22,0a1.67,1.67,0,0,1-.5,0,2.09,2.09,0,0,1-.49-.13c-1.14-.47-2.22-1.92-3.67-4.08-22.06-32.92-46.79-63.65-75.48-91.08-9.23-8.84-18.51-17.67-29-25l-.84-.57-.12-.07-.09-.06-.61-.38-.45-.26-.1-.06c-.35-.21-.69-.4-1-.57s-.68-.33-1-.48c-.19-.09-.37-.17-.56-.24a11.92,11.92,0,0,0-3.2-.83l-.56,0a8,8,0,0,0-.85,0h-.31a5.4,5.4,0,0,0-.69.08l-.59.11-.55.14a9.35,9.35,0,0,0-1,.36h0c-.3.12-.59.27-.88.42a19.86,19.86,0,0,0-6,5.65c-3.7,4.89-7,10.09-10.3,15.28-40.81,64.46-70.3,133.5-84.95,208.66a67.72,67.72,0,0,0-1.33,16.53,50.9,50.9,0,0,0,.89,7.17c.16.81.34,1.61.55,2.4q0,.17.09.36c.17.67.37,1.33.58,2s.43,1.31.67,2a.14.14,0,0,0,0,.06c.24.64.5,1.28.77,1.92s.55,1.26.86,1.89c.41.86.86,1.71,1.33,2.54s.95,1.61,1.47,2.39c.26.4.53.8.81,1.19.15.22.3.43.46.64.7,1,1.46,1.93,2.26,2.87.64.75,1.31,1.48,2,2.21s1.46,1.47,2.23,2.18l1.16,1,.85.73c.14.13.29.25.44.37l1,.79,1.22.95.84.62.86.62c10.42,7.37,20.8,14.79,31.26,22.11,16.16,11.3,31.37,23.51,42.6,40.13,5.25,7.77,13,12.91,21.14,17.5,1.42.81,2.86,1.59,4.3,2.35,4.37,2.29,8.81,4.38,13.32,6.32q1.13.5,2.25,1l0,0c1.17.49,2.35,1,3.53,1.44,2.12.85,4.24,1.67,6.38,2.46,2,.74,3.94,1.45,5.92,2.16,1.63.58,3.25,1.14,4.88,1.7,3.05,1.06,6.12,2.08,9.19,3.1l8.19,2.72c5,1.67,10.07,3.36,15.07,5.14a133.05,133.05,0,0,0,17.87,5.17l1.83.38,1.36.26,2.19.41a.86.86,0,0,1,.17,0l.18,0,.36.06,2.19.34,1.7.24c.28.05.56.08.84.11,1.72.23,3.44.42,5.17.57,4.2.39,8.43.57,12.66.55,2.69,0,5.39.16,8.07.06.62,0,1.24-.05,1.86-.11a57.89,57.89,0,0,0,11.92-1.85c33.76-10.65,67.17-22.27,98.27-39.51a82,82,0,0,0,25-20.71c20.72-26.33,44.79-49.4,68.66-72.72A54.54,54.54,0,0,0,657,483c.3-.36.59-.73.87-1.1s.41-.54.61-.82.47-.64.7-1,.45-.65.66-1,.43-.66.64-1,.54-.9.8-1.35c.13-.22.26-.44.38-.67s.31-.57.46-.86l.18-.34.39-.78,0-.07.06-.13c.14-.28.27-.57.4-.86s.33-.74.48-1.11c.36-.86.69-1.74,1-2.63.15-.44.29-.89.42-1.34.21-.69.39-1.39.56-2.09s.32-1.38.44-2.09A44.08,44.08,0,0,0,666.42,450.35ZM541.87,232.12a14.56,14.56,0,0,1,9.81-7.19,9.12,9.12,0,0,1,5.77,1.15,7,7,0,0,1,.8.61l.44.44c.14.15.28.31.41.47s.2.25.29.38a1.77,1.77,0,0,1,.16.22l.28.42a4.94,4.94,0,0,1,.27.42q2.85,4.86,5.72,9.72,2.46,4.16,4.89,8.32,1.71,2.89,3.4,5.8c.5.84,1,1.68,1.48,2.52L582,266.31l.19.32.4.63a4,4,0,0,1,.35.64,2,2,0,0,1,.19.55.83.83,0,0,1,0,.15,1.18,1.18,0,0,1,0,.26,1.39,1.39,0,0,1-.06.4.7.7,0,0,1-.08.23,1.74,1.74,0,0,1-.15.26,3.12,3.12,0,0,1-.83.76,2.59,2.59,0,0,1-.94.41,1.69,1.69,0,0,1-.55,0l-.09,0a4.27,4.27,0,0,1-1.8-1.14l-.27-.25-2.54-2.2-2.64-2.3q-14.58-12.63-29.06-25.36-.45-.41-.87-.84a5.72,5.72,0,0,1-.52-.6c-.09-.11-.18-.22-.26-.34a7.23,7.23,0,0,1-.6-.92,5.79,5.79,0,0,1-.31-.67c-.07-.19-.13-.38-.18-.56s0-.19-.07-.29,0-.2-.05-.29a3.11,3.11,0,0,1,0-.32A5,5,0,0,1,541.87,232.12Zm-16.94,18.51s0-.11,0-.16,0-.36.07-.54a1.59,1.59,0,0,1,.06-.3c0-.2.1-.4.16-.59a5.46,5.46,0,0,1,.4-1,9.17,9.17,0,0,1,1.18-1.81q.24-.3.51-.6c.19-.2.38-.4.58-.59a20.33,20.33,0,0,1,2.1-1.77l.41-.29a3.62,3.62,0,0,1,.41-.27,7.51,7.51,0,0,1,.82-.47l.22-.11a5.07,5.07,0,0,1,.69-.29l.45-.16a5.57,5.57,0,0,1,5.94,1.64c3.18,3.25,6.45,6.39,9.79,9.46l4,3.66q3,2.73,6.13,5.41l4.1,3.57c4.11,3.57,8.24,7.12,12.32,10.73.68.59,1.35,1.19,2,1.81,2,1.81,4,3.64,6,5.5.64.58,1.26,1.17,1.89,1.77q2,1.92,4,3.87c.66.63,1.3,1.28,1.93,1.93,3.84,3.86,7.52,7.86,11,12.08,1.12,1.37,2.21,2.76,3.24,4.17s2.05,2.82,3,4.26c.5.72,1,1.45,1.43,2.18s.94,1.46,1.39,2.19c.9,1.48,1.78,3,2.64,4.49s1.68,3,2.48,4.56h0c.48.94,1,1.89,1.44,2.84.19.35.36.71.53,1.07.26.52.51,1.05.77,1.58.63,1.29,1.23,2.59,1.82,3.9.37.79.73,1.58,1.07,2.38.18.4.36.8.53,1.2s.35.78.52,1.17c.07.17.14.33.22.48.22.47.46.94.7,1.43.39,1.42-.49,2.21-1.5,2.84a3.23,3.23,0,0,1-.68.33,2.14,2.14,0,0,1-.32.08.38.38,0,0,1-.15,0,1.37,1.37,0,0,1-.35,0c-1-.08-1.69-1.05-2.33-1.78l-.14-.15a1,1,0,0,0-.14-.15c-9.39-8.62-18.69-17.35-28-26.06q-30.32-28.28-60.55-56.6l-.3-.29-.3-.29a21.77,21.77,0,0,1-2-2.23c-.14-.18-.28-.36-.4-.54s-.31-.46-.46-.69-.24-.4-.35-.6-.21-.4-.3-.59a5,5,0,0,1-.21-.48l-.12-.3a5.11,5.11,0,0,1-.22-.7,4.2,4.2,0,0,1-.11-.45,6,6,0,0,1-.11-.7,2.64,2.64,0,0,1,0-.28A5.21,5.21,0,0,1,524.93,250.63Zm-18.78,19.16c0-.23.08-.46.13-.68a12.08,12.08,0,0,1,3.13-5,13.57,13.57,0,0,1,4.18-3.27l.39-.16a3.45,3.45,0,0,1,.52-.16l.31-.08a5,5,0,0,1,.56-.09h.08l.57,0a6.26,6.26,0,0,1,1.74.25l.42.13.32.12.71.3.32.16a15.86,15.86,0,0,1,1.38.81c.18.12.36.24.54.38.37.26.74.55,1.13.86s.78.64,1.18,1l.62.56,0,0q48.87,45.21,97.86,90.33c.71.65,1.39,1.32,2.05,2,.5.5,1,1,1.45,1.54.94,1,1.82,2.1,2.66,3.19.42.54.82,1.09,1.22,1.64a58.65,58.65,0,0,1,4.23,6.91q1.25,2.38,2.28,4.86c.35.82.68,1.65,1,2.49.24.63.47,1.26.69,1.9s.44,1.27.66,1.91c.29.85.56,1.71.8,2.58.18.65.37,1.3.55,2s.35,1.31.52,2c.46,1.76.86,3.53,1.24,5.32h0a2.21,2.21,0,0,0-.05.25c-.19,1.27.25,2.63-1.2,3a2.05,2.05,0,0,1-1.41-.12.77.77,0,0,1-.24-.12,3.09,3.09,0,0,1-.63-.48,3.28,3.28,0,0,1-.31-.34c-.37-.4-.7-.86-1.06-1.25l-.26-.26q-37.58-34.5-75.12-69.06-25-23-50-46l0,0-.44-.42c-.15-.13-.29-.27-.43-.41a21.1,21.1,0,0,1-2.58-3c-.1-.13-.19-.26-.28-.4s-.2-.3-.28-.44a3.49,3.49,0,0,1-.18-.31c-.08-.14-.15-.27-.21-.4s-.11-.22-.16-.33a8.93,8.93,0,0,1-.35-.88,4.27,4.27,0,0,1-.13-.48A6,6,0,0,1,506.15,269.79Zm-18,18.31c3.32-6.22,9.56-8.89,15.32-6.7a20.72,20.72,0,0,1,3.32,1.77,20,20,0,0,1,2.26,1.64c.24.19.47.4.7.61s.61.55.9.85.57.6.85.91c1.12,1.14,2.23,2.29,3.36,3.42l1.9,1.92,3.17,3.18,4.24,4.21,4.29,4.2q3,2.91,6,5.79l4.36,4.16q5.21,4.95,10.47,9.83,3.5,3.25,7,6.51,5.28,4.88,10.59,9.7,4.88,4.44,9.76,8.85,10.2,9.26,20.4,18.48,4.29,3.88,8.55,7.79,5.46,5,10.87,10,3.51,3.23,7,6.49c6.08,5.66,12,11.47,18,17.15.32.3.63.6.93.92s.59.6.87.9q.87.9,1.65,1.83c.26.31.52.62.77.94,6.35,7.86,9.32,17.31,10.15,28.74.06.93.12,1.87.16,2.83L645,435.28l-3.61-3.21-2-1.82-12.21-10.86c-9.43-8.39-18.73-16.66-28-24.93l-7.93-7.09q-46.46-41.69-93-83.31c-1.75-1.57-3.75-2.86-5.65-4.25-.55-.41-1.1-.81-1.62-1.23-.35-.27-.69-.56-1-.85l-.47-.44a10.33,10.33,0,0,1-1.18-1.33,5.36,5.36,0,0,1-.34-.49,3.6,3.6,0,0,1-.29-.5,6.37,6.37,0,0,1-.46-1.08C486.7,292.28,486.86,290.41,488.11,288.1ZM302.59,239.2c3.77-3.37,7.88-3.83,11.38-.23,25.49,26.24,55.34,48,78.14,77,.94,1.19,1.89,2.39,2.82,3.61.46.61.92,1.23,1.37,1.85s.91,1.24,1.33,1.88c.65.95,1.28,1.92,1.88,2.91.21.33.41.67.59,1,.52.9,1,1.82,1.46,2.76s.83,1.8,1.19,2.74c.08.2.16.4.23.61.3.78.57,1.58.8,2.4q.12.38.21.75c.11.38.21.77.3,1.16-13.61-11.21-27.19-22.47-40.85-33.63q-29.65-24.16-59.37-48.25C297.39,250.36,296.84,244.34,302.59,239.2Zm-43.32,74.13c.13-.27.28-.54.44-.82a16,16,0,0,1,1.9-2.56c4.52-5.11,8.74-5.52,13.42-1.38,37.76,33.39,76.06,66.14,114.51,98.7q14.41,12.21,28.85,24.4h0q43.34,36.56,86.59,73.22c3.78,3.22,7.52,6.5,11.42,9.58,2.73,2.16,5.39,4.48,3.92,8.22-1.39,3.55-5.11,1.12-6.94,2.12h0c-.52,0-1,0-1.55-.09s-1.18-.09-1.76-.15l-.22,0c-.35,0-.69-.07-1-.12-1-.12-2-.27-2.94-.44l-.63-.12-1.13-.23-1.59-.36-1.13-.29c-1.32-.35-2.61-.76-3.89-1.21l-1.32-.49-1.28-.51-1.27-.55c-.45-.2-.89-.4-1.34-.62L491,519c-.7-.35-1.39-.73-2.07-1.11-.39-.23-.79-.45-1.18-.69l-1.16-.71c-.77-.48-1.54-1-2.3-1.52l-.79-.55q-2-1.42-3.93-3c-.48-.39-.95-.79-1.42-1.2L293.93,349.93c-10.53-9.15-21.2-18.13-31.79-27.21a15.27,15.27,0,0,1-1.52-1.46l-.41-.48h0c-.1-.12-.2-.24-.29-.37l-.3-.43-.07-.11a1.74,1.74,0,0,1-.11-.18h0l-.05-.09-.15-.27a6.53,6.53,0,0,1-.31-.66,3.43,3.43,0,0,1-.13-.38.28.28,0,0,1,0-.12l-.09-.32a3.15,3.15,0,0,1-.09-.42,3.32,3.32,0,0,1-.06-.44,4.89,4.89,0,0,1,0-.54A7,7,0,0,1,259.27,313.33ZM249,336.51a10.14,10.14,0,0,1,6.83-7.57,4.4,4.4,0,0,1,1.44-.26h.12s0,0,0,0h0l.2,0a3.27,3.27,0,0,1,.87.22c1.7.63,2.87,2.47,4.31,3.74,16.6,14.71,33.22,29.45,50,44q76.08,66,152.34,131.78C470.43,513,476.24,517,483,522.13h0c-2.71.14-5.38.22-8,.22q-1.32,0-2.61,0c-.65,0-1.3,0-1.94-.06l-1.91-.08-1.27-.08c-.61,0-1.21-.08-1.82-.14s-1.19-.1-1.79-.17l-1.06-.12c-.95-.11-1.89-.23-2.82-.37s-1.62-.26-2.42-.41-1.61-.31-2.4-.48l-1.21-.27L453,520l-2-.54-.92-.26c-.31-.09-.61-.18-.92-.29-1.28-.4-2.54-.84-3.79-1.32-.32-.11-.63-.24-.94-.37l-.93-.39a60.63,60.63,0,0,1-17.56-11.45C370,454,312.9,404,255.9,353.92,250.54,349.21,247.37,343.84,249,336.51Zm-11.81,29.74a21.4,21.4,0,0,1,1-4.84q.12-.36.27-.72h0c.1-.24.21-.49.32-.72s.13-.29.21-.43a.56.56,0,0,1,.05-.08l.09-.15c.06-.12.13-.24.2-.36s.12-.18.17-.27.25-.37.38-.55.26-.35.4-.52l.3-.35a.39.39,0,0,1,.08-.1,3.92,3.92,0,0,1,.4-.42,7,7,0,0,1,.62-.6,9.15,9.15,0,0,1,2.49-1.66l.35-.14a3.18,3.18,0,0,1,.38-.11l.19-.05.51-.09c1.76-.24,3.52.51,5.32,2.38,21.5,22.33,45.79,41.59,68.7,62.38,37.11,33.66,74.55,67,111.83,100.44,1,.85,2.4,1.55,2.4,3.85l0,0-1.7.4-.43.09c-.48.11-1,.2-1.45.29s-.91.18-1.37.25h0l-1.21.19-1.14.16-1.13.13-.3,0q-.51.06-1,.09c-.64.06-1.27.1-1.9.12s-1.16,0-1.74,0a46.25,46.25,0,0,1-4.74-.19l-1.4-.16q-.92-.12-1.83-.27h0c-.57-.1-1.13-.21-1.7-.33l-1.68-.39c-1.11-.29-2.21-.62-3.31-1s-2.17-.81-3.24-1.28l-1.27-.58-.42-.21-1.49-.77c-.59-.31-1.17-.64-1.75-1l-1.18-.74a1.37,1.37,0,0,1-.2-.13c-.42-.27-.83-.54-1.24-.83-1.1-.75-2.19-1.57-3.27-2.45-.31-.24-.62-.49-.93-.77s-.61-.51-.92-.79c-.6-.51-1.19-1-1.78-1.61q-16.8-16.05-34-31.7-3.47-3.17-6.94-6.31l-6-5.4q-3.23-2.91-6.48-5.81-5.85-5.22-11.72-10.4l-5.23-4.6q-29.67-26-60-51.35-4.44-3.74-8.87-7.43l-1.2-1h0l-1.15-1,0,0-1.09-1c-.38-.36-.75-.72-1.11-1.1l-.64-.68-.8-.91-.62-.75-.6-.77c-.17-.22-.34-.45-.5-.68l-.47-.69c-.27-.41-.52-.82-.76-1.24s-.41-.75-.61-1.13c-.09-.19-.18-.38-.26-.57a1.51,1.51,0,0,1-.11-.22,1.47,1.47,0,0,1-.1-.22l-.05-.14c-.09-.22-.18-.44-.26-.66s-.16-.42-.23-.64-.11-.32-.16-.48c-.11-.34-.21-.68-.29-1,0-.15-.08-.3-.11-.45s-.07-.29-.1-.45-.08-.38-.11-.58c-.07-.35-.12-.71-.16-1.07s-.07-.68-.09-1A21.42,21.42,0,0,1,237.17,366.25Zm-8.46,27.68a.85.85,0,0,1,0-.23c0-.34.08-.69.14-1s.08-.48.13-.7a6.36,6.36,0,0,1,.17-.66,7,7,0,0,1,.42-1.19,3.32,3.32,0,0,1,.25-.54,3.77,3.77,0,0,1,.28-.48,3.47,3.47,0,0,1,.31-.44,3.19,3.19,0,0,1,.33-.4,4.42,4.42,0,0,1,3.86-1.49l.16,0,.17,0a3.29,3.29,0,0,1,.43.09,3.81,3.81,0,0,1,.45.13,6.44,6.44,0,0,1,.61.24,9.78,9.78,0,0,1,2.51,1.64L389.21,520.66a14,14,0,0,0,2.41,1.44c-14.92,5.34-27.47,2.9-38.73-7.07-28.12-24.87-56.48-49.47-84.73-74.18-6.79-5.94-13.52-11.91-20.28-17.84q-4-3.57-8.13-7.08l-4.11-3.51c-.63-.54-1.21-1.09-1.75-1.65-.22-.22-.42-.45-.62-.68l-.41-.48c-.2-.24-.39-.48-.58-.73s-.36-.49-.52-.73-.29-.43-.41-.64-.26-.42-.38-.63l-.35-.64c-.12-.22-.22-.43-.32-.65-.2-.44-.39-.89-.56-1.33-.09-.22-.17-.45-.24-.68-.17-.51-.31-1-.44-1.56A23.61,23.61,0,0,1,228.71,393.93Zm-9.39,29.44c.06-.28.13-.57.21-.86a11.57,11.57,0,0,1,.51-1.46c.1-.25.22-.52.35-.78s.3-.62.47-.94c.25-.48.53-1,.83-1.48,3.05-5.13,5.74-5,9.88-1.28l10.06,8.95h0q10.1,8.91,20.22,17.76,5.06,4.43,10.11,8.88l81.81,72.22.25.2h0l.16.15c.27.24.55.52.89.87l.46.44c.26.26.57.55.92.88-15.18,4.31-28.05,1.26-38.56-8.38-30.29-27.78-60.95-55.14-91.65-82.46C220.39,430.86,218.53,427.33,219.32,423.37ZM301.59,559c-29.37-25-57.87-49.15-86.23-73.46-.24-.2-.47-.41-.69-.62s-.45-.42-.65-.63c-.37-.37-.71-.75-1-1.13l-.31-.38c-.29-.36-.56-.73-.81-1.1s-.29-.45-.42-.67a6.38,6.38,0,0,1-.38-.67,12.56,12.56,0,0,1-.87-2,5.82,5.82,0,0,1-.2-.68,8.94,8.94,0,0,1-.25-1.23c0-.14,0-.27-.05-.4s0-.31,0-.46a9.1,9.1,0,0,1,.27-2.86,2.79,2.79,0,0,1,.1-.39,9.18,9.18,0,0,1,1.47-2.93c.22-.3.46-.59.72-.88a11.27,11.27,0,0,1,1.33-1.24,10.62,10.62,0,0,1,1.6-1.07,2.14,2.14,0,0,1,.4-.2,3.55,3.55,0,0,1,.5-.21,2.46,2.46,0,0,1,.51-.15,4.21,4.21,0,0,1,.49-.09,3.29,3.29,0,0,1,.94,0,3.43,3.43,0,0,1,.44.09,2.35,2.35,0,0,1,.43.13,2.5,2.5,0,0,1,.41.19,5.56,5.56,0,0,1,1.71,1.45c.67.81,1.35,1.62,2,2.41a3.58,3.58,0,0,0,.26.29c.68.8,1.37,1.58,2.07,2.35s1.49,1.65,2.25,2.46,1.52,1.62,2.29,2.42,1.38,1.42,2.08,2.12,1.53,1.54,2.31,2.3c1.54,1.52,3.1,3,4.68,4.5h0q1.72,1.62,3.47,3.22c.58.53,1.17,1.07,1.76,1.59,1.75,1.59,3.52,3.16,5.29,4.73,6.21,5.5,12.49,10.91,18.6,16.51.87.8,1.74,1.6,2.6,2.41s1.57,1.46,2.34,2.21c.94.89,1.88,1.78,2.8,2.69,1.95,1.91,3.93,3.79,5.93,5.66,1,.93,2,1.86,3,2.78l3,2.78c1.61,1.47,3.23,2.94,4.83,4.43l2.41,2.24C301,543.05,303.18,549.85,301.59,559Zm7-24.51c-.46,0-.91-.11-1.36-.19l-.67-.13a16.47,16.47,0,0,1-2-.57l-.82-.32c-.28-.12-.56-.24-.84-.38s-.55-.27-.82-.42-.4-.22-.59-.34a5.15,5.15,0,0,1-.58-.37,4,4,0,0,1-.56-.39,5.23,5.23,0,0,1-.55-.41l-.53-.43c-.17-.13-.34-.28-.51-.43Q258.38,493.91,218,457.67c-.25-.23-.49-.46-.7-.69a8.15,8.15,0,0,1-.65-.67h0a9,9,0,0,1-.76-.92c-.12-.15-.23-.31-.34-.46a7.32,7.32,0,0,1-.59-.94l-.26-.49a3.15,3.15,0,0,1-.2-.47,5.33,5.33,0,0,1-.23-.63,6.42,6.42,0,0,1-.23-.83,4.49,4.49,0,0,1-.1-.64.85.85,0,0,1,0-.23,5.68,5.68,0,0,1,0-.59v0a5.79,5.79,0,0,1,0-.72v0a6.12,6.12,0,0,1,.11-.71l.09-.41a.83.83,0,0,1,0-.15l.18-.57a0,0,0,0,1,0,0c.07-.18.14-.37.22-.55a3.65,3.65,0,0,1,.18-.41h0l.1-.2s0,0,0,0h0v0a.83.83,0,0,1,.07-.13h0a2.07,2.07,0,0,0,.17-.29l.06-.11h0l0,0c.07-.13.15-.25.23-.37s.25-.37.38-.55.37-.48.58-.73c2.12-2.58,5-4.32,7.78-1.11,13.59,15.57,30.4,27.64,45.59,41.46,14.85,13.52,30.27,26.43,45.44,39.6.35.3.7.6,1,.92l.25.25c.12.13.23.25.33.38a3.92,3.92,0,0,1,.27.33,3.09,3.09,0,0,1,.26.37c.08.12.15.25.22.37a3.2,3.2,0,0,1,.31,2.47,3.68,3.68,0,0,1-.38.91,5.79,5.79,0,0,1-.38.58,4.36,4.36,0,0,1-.41.55,5.35,5.35,0,0,1-.45.5l-.48.45a3.9,3.9,0,0,1-.51.4,9,9,0,0,1-1,.62l-.49.24-.4.17a4.09,4.09,0,0,1-.49.18,15.34,15.34,0,0,1-2.31.59l-.94.14C309.26,534.41,308.94,534.45,308.63,534.48Zm255.93,26.69c-9.18,10.74-21.16,17.62-34,22.3-25.21,9.19-50.71,17.63-76.36,25.54-17.54,5.42-35.33,3.49-51.72-4.33-17.14-8.16-35.59-12.63-52.78-20.35-9.07-4.07-18.83-6-27.72-10.33-6.42-3.19-9.83-8.76-11.42-15.38-1.78-7.29,1.19-11.14,8-14.21,14.44-6.5,29.52-7.72,42.64-6.81,35.6.11,68.67-3.75,101.89-4.83,16.61-.54,32.68,1,49,2.9,10.27,1.2,20.79.63,31.18.35,6.12-.19,11.7,1.53,17.12,3.81C568.56,543.24,570.42,554.35,564.56,561.17Zm2.34-36.39q-.87.13-1.74.24l-1.09.12c-.5.06-1,.1-1.51.14s-1.15.09-1.73.12l-.8,0c-.43,0-.86,0-1.28,0s-.85,0-1.27,0c-1.13,0-2.23,0-3.33-.1l-1.07-.07c-.45,0-.89-.07-1.33-.12l-.66-.07-.65-.08c-.37,0-.74-.09-1.1-.15l-1.27-.2-1.2-.22c-.63-.12-1.26-.25-1.88-.4l-1.25-.3c-.54-.14-1.07-.29-1.6-.45s-.78-.22-1.16-.35-.62-.19-.92-.3c-.63-.21-1.26-.43-1.88-.67l-.56-.22c-.56-.22-1.12-.45-1.67-.69l-.12-.05c-.52-.23-1-.46-1.53-.7l-.88-.42c-.45-.22-.89-.45-1.32-.68l-1.31-.71c-.5-.28-1-.57-1.49-.87l-1.25-.77-.54-.35-.84-.56c-.45-.3-.9-.61-1.35-.94l-1.59-1.17c-.71-.53-1.41-1.09-2.1-1.67l-1-.88-15-12.86-5.5-4.71q-80-68.52-160-137.12-31.28-26.79-62.27-53.79c-8.23-7.18-7.86-15.67.42-21.3a6.6,6.6,0,0,1,4.47-1.4,4,4,0,0,1,.48.08,4.11,4.11,0,0,1,.91.33,4.11,4.11,0,0,1,.88.57,7.45,7.45,0,0,1,.85.84c15.58,18.36,35.49,31.82,53.64,47.23l1.71,1.44c.75.64,1.5,1.28,2.26,1.91q111,93.78,222.15,187.54c1.26,1.06,3.12,1.68,3.58,3.84a3,3,0,0,1,.08.45C568.49,524.54,567.69,524.67,566.9,524.78ZM587.78,544c0,.12-.06.24-.1.36s-.08.26-.13.38a1.94,1.94,0,0,1-.15.36,2.21,2.21,0,0,1-.18.34,3.28,3.28,0,0,1-.2.31,1.57,1.57,0,0,1-.19.26.13.13,0,0,1-.06.07.8.8,0,0,1-.15.17.47.47,0,0,1-.13.12s0,0,0,0a2.09,2.09,0,0,1-.22.2,1.89,1.89,0,0,1-.38.27,5.43,5.43,0,0,1-1.87.71,7.65,7.65,0,0,1-1.12.13,5.82,5.82,0,0,1-.6,0c-3.83,0-6.35-3.78-6.25-9.45.59-2.09-.23-5.35,3.63-5.48,3.36-.12,8.59,6.25,8.29,10.1A7.19,7.19,0,0,1,587.78,544Zm21.51-21.92c-3,4.83-6.45,10.17-13.09,10.54l-.05-.05-.6-.06-.3,0a8.86,8.86,0,0,1-1-.2l-.42-.11a3.31,3.31,0,0,1-.42-.12c-.27-.09-.53-.18-.78-.28a9.88,9.88,0,0,1-1-.45l-.17-.08-.33-.18-.36-.2-.37-.21c-.29-.18-.57-.37-.85-.57s-.47-.33-.71-.51a.18.18,0,0,1-.07,0c-.35-.26-.69-.52-1-.79l-1.08-.89h0Q484.75,442.24,382.86,356.7L298.65,286a76.62,76.62,0,0,0-9.28-6.52h0a16.36,16.36,0,0,1-1.37-.93,10.12,10.12,0,0,1-.79-.65h0a10.64,10.64,0,0,1-1-1l-.38-.48a7.3,7.3,0,0,1-1.1-2,6.57,6.57,0,0,1-.28-1l-.06-.3a4.64,4.64,0,0,1-.1-.76c0-.1,0-.2,0-.3a7.64,7.64,0,0,1,0-1.07,8.76,8.76,0,0,1,.18-1.31c0-.22.1-.44.15-.68a6.45,6.45,0,0,1,.2-.68,7.13,7.13,0,0,1,.23-.7h0a14.12,14.12,0,0,1,.59-1.44c.18-.38.35-.75.53-1.11l.39-.78c.12-.25.24-.49.37-.72.25-.49.51-.94.76-1.37s.66-1.09,1-1.55a12.06,12.06,0,0,1,1.49-1.78c.17-.16.34-.32.51-.45a4.21,4.21,0,0,1,.51-.38l.39-.24a4.51,4.51,0,0,1,.81-.37,2.77,2.77,0,0,1,.41-.12,3.45,3.45,0,0,1,.56-.1,3,3,0,0,1,.52,0,4.52,4.52,0,0,1,.52,0,6.29,6.29,0,0,1,.72.11,2.49,2.49,0,0,1,.37.09l.58.18a.39.39,0,0,1,.14.05l.34.13a11.59,11.59,0,0,1,1.35.64l.37.21a27.57,27.57,0,0,1,2.91,2l1.38,1.08.77.64L373,320.41q77.7,64.84,155.43,129.7,35.37,29.52,70.75,59l0,.05c.21.17.42.35.64.51.61.48,1.24.95,1.85,1.44l.5.4c.34.27.67.56,1,.86l.33.33c.17.17.33.35.49.53h0c.16.18.31.36.45.55l.05,0,.16.2.25.29c.26.28.57.56.89.85l.22.18.22.18.62.5.45.37.05,0,.22.18.39.32a9.66,9.66,0,0,1,1,1l.21.26A3,3,0,0,1,609.29,522.06ZM626.76,501a1.81,1.81,0,0,1,0,.23,2,2,0,0,1-.06.32c0,.1,0,.21-.08.32a7.76,7.76,0,0,1-.59,1.43c-.07.14-.15.29-.24.44s-.36.6-.57.93-.44.66-.7,1l-.4.55c-.41.56-.87,1.16-1.39,1.8l-.56.69c-3.64,4.49-7.31,5.82-12.49,1.49l-6.93-5.78c-1-.87-2.08-1.75-3.13-2.61q-60.87-50.76-121.83-101.47l-39.19-32.69c-3.1-2.59-6.4-5.06-6.1-11.17l0,0A16,16,0,0,1,441.19,345c4.73-2.41,7.8,1.12,11.09,4h0q46,39.52,92.06,78.93l78.2,66.8c.7.61,1.32,1.16,1.84,1.68l.56.57q.25.27.48.54a4.33,4.33,0,0,1,.39.51l.26.38a0,0,0,0,1,0,0,1.74,1.74,0,0,1,.11.18,3.91,3.91,0,0,1,.42,1c0,.11.06.22.08.33a2.17,2.17,0,0,1,0,.25l0,.21A4.46,4.46,0,0,1,626.76,501Zm17.42-20.64a4.67,4.67,0,0,1,0,.52,4.9,4.9,0,0,1-.11.74c0,.12,0,.24-.07.35s-.12.46-.19.7a0,0,0,0,1,0,0c-.07.21-.14.41-.22.62s-.23.58-.36.87-.33.68-.51,1c0,0,0,0,0,0-.13.21-.25.43-.37.64s-.36.59-.57.88a20.09,20.09,0,0,1-1.49,2,4.45,4.45,0,0,1-.41.47c-.28.32-.56.62-.85.91l-.66.63a17.36,17.36,0,0,1-2.09,1.65,10.38,10.38,0,0,1-1,.57,9.19,9.19,0,0,1-1.87.78,4.89,4.89,0,0,1-1.94.15h0l-.57-.13-.37-.13-.48-.21-.27-.15c-.18-.1-.35-.21-.51-.32s-.51-.37-.76-.58l-.75-.63q-80.91-70.11-161.84-140.2l-1.34-1.16c-1.56-1.34-3.13-2.69-4.72-4l-2.05-1.69c-.92-.74-1.85-1.47-2.79-2.18-4.06-3.06-6.27-6.29-3.16-11.34.38-.61.78-1.19,1.19-1.74.21-.27.41-.53.64-.79s.3-.36.47-.53a.28.28,0,0,1,.09-.1c.09-.11.19-.21.29-.31a7.62,7.62,0,0,1,.63-.64,6.37,6.37,0,0,1,.55-.5c.23-.21.47-.41.71-.59s.37-.28.55-.41l.26-.18a6.42,6.42,0,0,1,.65-.41,7.06,7.06,0,0,1,.75-.42c.25-.13.5-.25.75-.35a10.42,10.42,0,0,1,2.17-.67,2.25,2.25,0,0,1,.36-.06l.48-.06h.16a7.84,7.84,0,0,1,1.37,0l.29,0,.46.07c.32.06.62.13.93.22l.46.16a4.37,4.37,0,0,1,.46.18h0c.14.07.29.13.43.21.49.27,1,.56,1.45.86l1.05.69c.26.16.51.34.76.53s.55.41.82.62a27.59,27.59,0,0,1,2.19,1.86Q488.7,342.39,504.09,356l10.25,9.07q10.24,9,20.5,18.08l0,0L546.07,393q15.95,14,32,27.79,4.24,3.66,8.5,7.28Q597,437,607.46,445.74l1.37,1.15q2.71,2.26,5.44,4.52c.37.31.74.62,1.12.92q11.86,9.81,23.86,19.45a18.8,18.8,0,0,1,3.07,2.89,6.13,6.13,0,0,1,.68.95,8.24,8.24,0,0,1,.56,1.06,3.51,3.51,0,0,1,.21.57A8.3,8.3,0,0,1,644.18,480.34Zm15.34-18c0,.36-.09.71-.15,1.06s-.12.7-.2,1.05-.1.46-.16.68-.15.56-.24.83-.15.45-.23.67-.21.52-.33.77-.24.5-.38.75-.41.66-.64,1a4.3,4.3,0,0,1-.38.49l-.4.44a10.52,10.52,0,0,1-3.23,2.24c-4.54,2.1-7-1.21-9.79-3.61q-74.73-65.31-149.55-130.53c-6.59-5.75-13.49-11.12-20.24-16.69-2.33-1.92-3.82-3.67-4.46-5.43l-.12-.36c0-.14-.08-.27-.11-.41s-.06-.26-.08-.4a5.49,5.49,0,0,1,0-1.67,5.16,5.16,0,0,1,.09-.52l.06-.27a5.72,5.72,0,0,1,.25-.81,15.37,15.37,0,0,1,2.75-4.47c6.47-7.78,9.13-8.46,15.56-2.78q5.28,4.69,10.57,9.38l2.37,2.11q35,31,70,62.06c1,.87,2,1.74,3,2.62,3.9,3.45,7.78,6.9,11.69,10.35q34.25,30.28,68.65,60.37a19.57,19.57,0,0,1,4,4.52c.13.21.25.42.37.63a4.41,4.41,0,0,1,.33.65,12.68,12.68,0,0,1,.56,1.37,11,11,0,0,1,.39,1.48c.05.25.1.51.13.78s.06.54.08.82S659.56,462.09,659.52,462.37Z"/><path class="cls-1" d="M622.33,567.4c-1.67,1.24-3.35,2.47-5,3.67q-5.73,4.13-11.56,8-1.95,1.3-3.91,2.58c-1.75,1.15-3.51,2.27-5.28,3.38s-3.5,2.18-5.27,3.25q-12,7.26-24.56,13.47-2.78,1.37-5.58,2.67c-.95.45-1.9.88-2.86,1.32q-4.24,1.92-8.56,3.7h0c-1.2.5-2.41,1-3.62,1.47q-5.45,2.16-11,4.1c-43.28,15-87.79,22.61-133,11.48-41.7-10.27-82.75-22.76-122.71-38.41q-4-1.56-8-3.17l-4.11-1.67h0q-4.68-1.9-9.34-3.89t-9.31-4l-2.83-1.27-3.17-1.45c-2.11-1-4.21-2-6.31-3l-3.15-1.53c-3.47-1.69-7-3.42-10.45-5.16l-5.21-2.6h0l-5.26-2.62-.06,0q-2.61-1.31-5.26-2.59l-.05,0c2.08,6.73,3.83,12.81,5.83,18.81,10.56,31.35,20.25,62.84,22.25,96.24a71,71,0,0,0,4.38,21c.16.42.33.84.5,1.26s.37.88.56,1.32l.63,1.39c.49,1.06,1,2.09,1.56,3.1.29.54.59,1.07.9,1.6.7,1.21,1.45,2.39,2.23,3.54h0c1,1.53,2.17,3,3.35,4.45.6.72,1.21,1.43,1.83,2.12s1.28,1.38,1.94,2a78.91,78.91,0,0,0,23.65,16,342.39,342.39,0,0,0,33.63,13A389.83,389.83,0,0,0,356.9,753.4q2.89.58,5.8,1.11,9.39,1.74,18.83,3a416.78,416.78,0,0,0,75.8,3.1h0c2.34-.11,4.69-.24,7-.4s4.74-.32,7.11-.51,4.71-.39,7.06-.62c1.19-.11,2.38-.22,3.57-.35,1.78-.18,3.55-.37,5.32-.58l3.36-.4,2-.23q2.37-.3,4.74-.63h0q6.9-.95,13.72-2.15c3-.53,6-1.1,9-1.71s6-1.25,9-1.94,5.92-1.4,8.86-2.17h0q7.94-2.05,15.74-4.5,3.12-1,6.21-2c2.07-.69,4.12-1.41,6.17-2.15q4.41-1.59,8.79-3.32,2.18-.85,4.35-1.76c1.18-.48,2.35-1,3.52-1.48,2.2-.94,4.38-1.9,6.56-2.9,1.9-.87,3.8-1.76,5.68-2.67,2.48-1.19,4.94-2.43,7.4-3.7a294.36,294.36,0,0,0,31.11-18.6,51.61,51.61,0,0,0,4.11-3.14c.43-.36.84-.73,1.25-1.1h0a37.77,37.77,0,0,0,8.55-11.19c.46-.92.87-1.86,1.25-2.82.19-.48.37-1,.54-1.46s.26-.76.37-1.14.29-1,.42-1.45c.26-1,.49-2,.68-3h0c.06-.32.12-.64.17-1,.1-.56.18-1.13.25-1.71a48.38,48.38,0,0,0,.4-5.35c.42-19.08-.71-38.19,3.72-57.13,2.84-12.09,4.79-24.34,6.47-36.82.34-2.49.66-5,1-7.52q.69-5.5,1.38-11.09t1.4-11.23c.38-3,.77-6.05,1.19-9.1.21-1.52.42-3,.64-4.59C651.45,546.49,636.74,556.72,622.33,567.4ZM598.44,718.56c-1.05.59-2.1,1.17-3.16,1.73-.4.23-.81.44-1.22.65-.68.37-1.36.73-2,1.08-.44.24-.89.47-1.34.69L588,724.05c-.86.44-1.73.86-2.6,1.26l-.26.12q-1.29.63-2.58,1.2l-2.92,1.31-2.75,1.19c-.86.37-1.72.73-2.59,1.08-2.43,1-4.89,1.95-7.36,2.86a217.4,217.4,0,0,1-33,9.32C454.4,758.14,375.57,757,298.72,727.77c-13.91-5.3-27.42-11.56-38.73-21.7a45.61,45.61,0,0,1-9-10.87c-.18-.29-.34-.57-.5-.86-.33-.59-.65-1.19-1-1.8-.56-1.12-1.07-2.25-1.52-3.4-.16-.41-.32-.82-.47-1.23s-.31-.89-.46-1.33a47.85,47.85,0,0,1-1.34-5c-.09-.41-.17-.82-.25-1.23a54.88,54.88,0,0,1-.79-5.91c0-.34-.05-.68-.07-1s0-.43,0-.64c0-.39,0-.78,0-1.17A83.5,83.5,0,0,1,245.2,658c.72-5.89,5.49-2.74,8.42-1.6,13.19,5.11,26.09,11.05,39.48,15.57,4.78,1.62,9.57,3.34,14.44,4.84l1.22.37c1.94.59,3.89,1.15,5.87,1.64l1.54.38h0c.84.2,1.68.38,2.52.56.62.13,1.24.26,1.87.36l.06,0,1.86.31h0c1.27.2,2.55.37,3.85.51l1.31.12h0c.87.07,1.75.13,2.64.17l1.33,0c1.11,0,2.24,0,3.38,0l1.55-.07q1.56-.11,3.15-.27l1.6-.2q.71-.09,1.41-.21c-12.38-7.61-25-10.7-37.57-13.53-1.89-.44-3.77-.92-5.65-1.41l-1.86-.5c-1.63-.45-3.26-.91-4.87-1.39-2.51-.75-5-1.55-7.49-2.38-1.22-.41-2.43-.83-3.64-1.27q-2.2-.79-4.38-1.63c-1.09-.41-2.19-.84-3.27-1.28-.69-.27-1.38-.56-2.07-.85s-1.13-.45-1.69-.69C241.74,644,228,622.17,226.51,592c-.07-1.71-.09-3.42-.09-5.14,0-.45,0-.9,0-1.35s0-.87,0-1.32c0-.88,0-1.78,0-2.69,0-1.8,0-3.62,0-5.5h0l6.41,2.43L255.49,587q7.18,2.73,14.36,5.43,5,1.88,9.95,3.69l4.45,1.63,19.11,7,6.36,2.31,6.44,2.33,6,2.15.64.23,6,2.11c7.46,2.6,14.94,5.13,22.47,7.52l3,1c1.63.51,3.27,1,4.9,1.51l5,1.5q4.31,1.27,8.64,2.46l2.77.76,2.67.71q2.76.72,5.53,1.41c1.09.28,2.19.55,3.29.81q3.93.94,7.84,1.77,5.89,1.23,11.74,2.2c2.6.44,5.18.82,7.77,1.17s5.17.66,7.75.93c1.29.13,2.58.26,3.86.37s2.52.22,3.78.31l.33,0,3.12.21,1,.06,2.75.14c.87.05,1.74.09,2.61.11l2.71.09,2.89.06q1.91,0,3.81,0h0c1.17,0,2.34,0,3.5,0,.56,0,1.11,0,1.66,0,1.27,0,2.54,0,3.81-.1l2.7-.11c1.52-.07,3-.15,4.56-.25,1.31-.08,2.63-.18,3.94-.28l.2,0,2.59-.22.95-.09c.6-.05,1.2-.11,1.79-.18q3.08-.3,6.13-.69c.54-.06,1.07-.13,1.61-.21s1.28-.16,1.93-.26l1.48-.21q4-.59,8.1-1.31c1.12-.2,2.25-.4,3.37-.62,1.29-.25,2.58-.5,3.87-.77,1.54-.31,3.08-.65,4.63-1,1.13-.25,2.27-.52,3.41-.79s2.47-.6,3.7-.91l.52-.13c1.23-.31,2.45-.64,3.68-1s2.62-.72,3.93-1.09,2.62-.76,3.93-1.16,2.47-.75,3.71-1.14,2.75-.88,4.13-1.34q3.91-1.31,7.81-2.73c1.3-.47,2.6-.95,3.89-1.45.94-.35,1.87-.71,2.8-1.08,1.38-.54,2.77-1.09,4.15-1.66,1.07-.43,2.13-.87,3.2-1.32q6.21-2.61,12.37-5.52l3.17-1.52q1.32-.62,2.64-1.29c.85-.41,1.69-.83,2.54-1.26,1.7-.86,3.38-1.73,5.06-2.61s3.35-1.79,5-2.71,3.29-1.84,4.92-2.78h0q4.9-2.83,9.71-5.79h0c2.41-1.49,4.79-3,7.17-4.52h0l4.42-2.89.31-.2,3.78-2.53.75-.51,4-2.7q2.19-1.5,4.36-3t4.34-3.06q2.18-1.53,4.33-3.09c2.87-2.06,5.74-4.15,8.6-6.24q4.56-3.35,9.11-6.72c1.09-.85,2.32-1.42,4.71-2.85h0c-2.28,13.46-4.28,25.69-6.28,37.93-1.83,11-3.79,21.89-5.47,32.89-.54,3.5-1.6,6.72-4.84,8.17l-2.05.94-2.06,1c-1.38.64-2.74,1.29-4.11,2l-4.09,2-7.66,3.82c-1.1.56-2.21,1.12-3.31,1.66l-2.9,1.44c-3.54,1.74-7.09,3.45-10.67,5.07-1.61.72-3.22,1.43-4.84,2.11s-3.41,1.43-5.13,2.09c-1.15.44-2.3.87-3.46,1.29l-2.24.79-1.26.42-.69.23-1.46.46c-2.7.84-5.44,1.59-8.22,2.23l-1.12.25-1.78.38h0c-.86.17-1.72.32-2.58.47h0l-1.93.32-1,.15-1.81.32-1.12.22-.69.15-.3.06-1,.23c-.37.09-.73.19-1.07.3s-.62.21-.91.33l-.06,0-.4.19c-.18.09-.35.18-.51.28s-.25.15-.37.23a5.06,5.06,0,0,0-1,.9,3.62,3.62,0,0,0-.62,1.08c0,.11-.08.22-.11.33l-.09.46a.78.78,0,0,1,0,.14s0,0,0,0a.17.17,0,0,1,0,.07h0s0,0,0,0a2.73,2.73,0,0,0,0,.41c0,.13,0,.26,0,.4a4.84,4.84,0,0,0,.1.63c0,.21.09.42.15.64l.06.24a1.71,1.71,0,0,0,.09.3,7.48,7.48,0,0,0,.67,1.44l.19.27.22.28a.12.12,0,0,0,.05,0c1.6,1.68,3.88.72,6.36.05h0q2.85-.78,5.68-1.6,4.86-1.4,9.67-3c.7-.22,1.41-.45,2.11-.69l3.23-1.09c.92-.31,1.84-.63,2.75-1,.28-.09.57-.19.85-.3l2.7-1c2.16-.79,4.32-1.62,6.46-2.49q3.56-1.41,7.07-2.93t7-3.15q2.31-1.09,4.61-2.23t4.57-2.32c1.51-.8,3-1.6,4.53-2.43h0l3-1.68,1.49-.86,1.47-.87c.31-.19.62-.36.92-.52h0a18.76,18.76,0,0,1,1.7-.83,13.36,13.36,0,0,1,1.56-.55,7.05,7.05,0,0,1,.73-.18,5.65,5.65,0,0,1,.68-.11c3.85-.4,5.81,2.67,6.38,9.08,1.89,21.24-5.33,38.76-22.61,51.36q-2.43,1.79-4.9,3.51-5.07,3.53-10.33,6.75l-2,1.24C602.26,716.39,600.35,717.49,598.44,718.56Z"/><path class="cls-1" d="M410.69,260.35c-12.26-31.31-28.54-60.08-46.85-87.54q-2.61-3.92-5.28-7.8l-2.68-3.89q-4-5.81-8.18-11.54-6.9-9.59-14-19a17.22,17.22,0,0,1,7.5,1.5,11.72,11.72,0,0,1,1.52.83h0a11.24,11.24,0,0,1,1.37,1,8.6,8.6,0,0,1,.84.77,13,13,0,0,1,3.41,6.26,14.41,14.41,0,0,0,4.13,7.08c27.8,28.08,46.92,61.28,58.15,99.09C411.91,251.42,411.63,255.77,410.69,260.35Z"/><path class="cls-1" d="M489.11,175.64l0,.05c-.9,2.24-1.8,4.49-2.69,6.73Q481,196,475.66,209.58h0c-9.86,24.89-20,49.67-31.94,73.65h0c.23-1.22.47-2.43.72-3.64A288.78,288.78,0,0,1,453.93,244c.27-.8.55-1.6.83-2.4q3.83-11,8.63-21.67A249.17,249.17,0,0,1,489.11,175.64Z"/><path class="cls-1" d="M463.75,200.29c-.23,1-1.16,2-1.54,2.94-4.77,11.49-10.93,22.4-14.23,34.51,0,.15-.06.29-.1.43s-.08.27-.13.41-.11.26-.17.39a4.84,4.84,0,0,1-5.22,2.63l-.3-.07c-3.81-.73-7.72-1.86-9.16-5.74l-.15-.46a7.72,7.72,0,0,1-.22-.89c-.1-.5-.19-1-.27-1.51-.56-3.63-.67-7.38-1-11.07a9.41,9.41,0,0,1,2-7.2,5.44,5.44,0,0,1,.48-.48,7.63,7.63,0,0,1,4-1.83c8.53-1.4,14.27-6.71,20.07-12.3,1.33-1.28,2.71-4,5.19-1.82a2.24,2.24,0,0,1,.82,1.25.48.48,0,0,1,0,.2A1.78,1.78,0,0,1,463.75,200.29Z"/></g></g></svg>